<svg xmlns="http://www.w3.org/2000/svg" data-name="Layer 1" viewBox="0 0 128 160" x="0px" y="0px"><path d="M120.06185,91.88186a62.87945,62.87945,0,0,1-19.6771,23.052c-15.205-2.21813-26.18845-7.31035-36.84986-12.28326-9.32576-4.35277-18.13866-8.45515-29.16976-10.53025a84.50032,84.50032,0,0,0-26.67737-.75124,62.62856,62.62856,0,0,1-5.06834-39.712C12.02859,52.90929,22.69,55.986,30.75166,62.98629c16.61223,14.406,32.5209,15.18123,39.79543,14.573a17.92092,17.92092,0,0,0,30.55316,4.4482c.10736.11929.22659.25046.334.38162C105.8824,87.6125,112.77538,90.43884,120.06185,91.88186Z"/><path d="M126.60894,64a62.5429,62.5429,0,0,1-2.54014,17.66168c-6.05818-.91829-11.52-2.77866-14.45371-6.23709a28.15334,28.15334,0,0,0-4.54362-4.26928c.01194-.13117.01194-.2624.01194-.39356a17.93658,17.93658,0,0,0-35.45453-3.86386c-5.18764.45318-17.948.03574-31.84113-12.02094C28.307,46.64839,16.32182,42.87989,5.67235,41.258a60.13483,60.13483,0,0,1,2.94556-6.41593,21.56416,21.56416,0,0,0,22.4915-7.7874c7.76353,3.6254,17.04161,6.88105,26.093,7.41771,19.84407,1.19255,21.82375,1.753,33.83268,6.48748,8.46716,3.35107,22.7539,4.20967,32.73555,4.35277A62.41445,62.41445,0,0,1,126.60894,64Z"/><path d="M119.21511,34.46048c-8.77716-.322-18.62764-1.25216-24.24452-3.47029-13.51162-5.35462-16.982-6.02244-37.12412-7.22686-7.62042-.45317-15.71782-3.37494-22.56313-6.61872a21.08326,21.08326,0,0,0-.45317-8.5267,62.58711,62.58711,0,0,1,84.38494,25.84257Z"/><path d="M59.00583,112.381c-8.70481-4.05747-16.92631-7.89017-26.62336-9.71626a74.02767,74.02767,0,0,0-18.48273-1.11853,62.67639,62.67639,0,0,0,71.699,21.23643C75.26293,119.9432,66.81419,116.02025,59.00583,112.381Z"/><circle cx="87.13948" cy="70.75779" r="9.14289"/><circle cx="13.98341" cy="13.98341" r="12.59235"/><text x="0" y="143" fill="#000000" font-size="5px" font-weight="bold" font-family="'Helvetica Neue', Helvetica, Arial-Unicode, Arial, Sans-serif">Created by Delwar Hossain</text><text x="0" y="148" fill="#000000" font-size="5px" font-weight="bold" font-family="'Helvetica Neue', Helvetica, Arial-Unicode, Arial, Sans-serif">from the Noun Project</text></svg>