<svg width="590" height="729" viewBox="0 0 590 729" fill="none" xmlns="http://www.w3.org/2000/svg">
<path d="M181 100.528C208.614 100.528 231 78.1418 231 50.5276C231 22.9133 208.614 0.527588 181 0.527588C153.386 0.527588 131 22.9133 131 50.5276C131 78.1418 153.386 100.528 181 100.528Z" fill="#FAB317"/>
<path d="M189.18 70.6198L181.012 75.9078L172.843 70.6198C152.417 57.417 152.417 47.9815 152.417 44.4331C152.417 36.1267 159.145 29.387 167.463 29.387C173.419 29.387 178.558 32.8433 181.012 37.8663C183.454 32.8433 188.592 29.387 194.548 29.387C202.866 29.387 209.595 36.1267 209.595 44.4331C209.595 47.9815 209.594 57.4055 189.18 70.6198Z" fill="white"/>
<path d="M448.865 195.447C437.894 188.714 431.049 201.851 431.006 201.93C430.962 201.851 424.125 188.714 413.146 195.447C400.542 203.182 412.858 227.603 430.998 233.528C449.138 227.603 461.462 203.175 448.851 195.447H448.865Z" fill="#5C4FA1"/>
<path d="M566.967 508.341H499.126C494.64 508.341 491 511.982 491 516.467V560.199C491 564.685 494.64 568.325 499.126 568.325H519.325L525.705 579.367L533.051 592.1L540.397 579.367L546.777 568.325H566.976C571.462 568.325 575.102 564.685 575.102 560.199V516.467C575.102 511.982 571.462 508.341 566.976 508.341H566.967Z" fill="#FCB32B"/>
<path d="M527.627 557.859C533.506 558.583 539.468 558.62 545.356 557.961C546.777 557.803 548.235 557.59 549.442 556.837C550.65 556.085 551.541 554.776 551.235 553.383C552.303 553.373 553.185 552.565 553.937 551.813C554.244 551.507 554.569 551.191 554.754 550.792C554.977 550.337 555.014 549.816 554.987 549.306C554.903 547.708 554.16 546.232 552.767 545.442C554.039 545.062 555.098 544.021 555.479 542.749C555.86 541.477 555.562 540.019 554.717 539.007C554.151 538.329 553.473 538.004 552.656 537.669C553.231 537.149 554.039 536.898 554.494 536.267C555.126 535.394 554.782 534.084 553.984 533.351C553.185 532.626 552.07 532.366 551.003 532.264C549.043 532.088 547.074 532.348 545.115 532.422C543.155 532.496 541.028 532.134 539.282 531.224C538.902 528.633 539.524 525.931 538.827 523.405C537.973 520.303 535.011 517.907 531.807 517.721C531.194 517.684 530.506 517.758 530.107 518.232C529.819 518.585 529.763 519.068 529.763 519.513C529.754 521.603 530.544 523.609 531.017 525.643C531.5 527.677 531.621 529.989 530.432 531.707C529.968 532.376 529.327 532.924 528.946 533.648C528.426 534.642 528.473 535.84 528.194 536.936C527.925 538.031 527.07 539.174 525.947 539.062L527.609 557.859H527.627Z" fill="white"/>
<path d="M526.68 533.62H519.65C519.106 533.62 518.666 534.061 518.666 534.605V559.075C518.666 559.619 519.106 560.06 519.65 560.06H526.68C527.224 560.06 527.665 559.619 527.665 559.075V534.605C527.665 534.061 527.224 533.62 526.68 533.62Z" fill="white"/>
<path d="M524.033 536.908C524.033 537.511 523.541 538.004 522.938 538.004C522.334 538.004 521.842 537.511 521.842 536.908C521.842 536.304 522.334 535.812 522.938 535.812C523.541 535.812 524.033 536.304 524.033 536.908Z" fill="white"/>
<path d="M215.357 409.788C219.522 410.302 223.747 410.328 227.919 409.861C228.926 409.749 229.959 409.597 230.815 409.064C231.67 408.531 232.302 407.603 232.085 406.616C232.841 406.61 233.46 406.037 234 405.504C234.217 405.287 234.447 405.063 234.579 404.78C234.737 404.458 234.763 404.089 234.743 403.728C234.684 402.596 234.157 401.549 233.17 400.99C234.072 400.72 234.822 399.983 235.092 399.082C235.362 398.18 235.151 397.147 234.552 396.43C234.151 395.949 233.67 395.712 233.091 395.482C233.499 395.114 234.072 394.936 234.394 394.488C234.842 393.87 234.598 392.942 234.032 392.422C233.466 391.909 232.677 391.725 231.92 391.652C230.532 391.527 229.136 391.711 227.748 391.764C226.359 391.817 224.853 391.56 223.615 390.915C223.346 389.079 223.787 387.164 223.293 385.374C222.688 383.176 220.588 381.479 218.318 381.347C217.884 381.321 217.397 381.373 217.114 381.709C216.91 381.959 216.87 382.301 216.87 382.617C216.864 384.098 217.423 385.519 217.759 386.96C218.101 388.401 218.186 390.04 217.344 391.257C217.015 391.731 216.561 392.119 216.291 392.633C215.923 393.337 215.956 394.186 215.758 394.962C215.561 395.739 214.962 396.548 214.166 396.469L215.344 409.788H215.357Z" fill="white"/>
<path d="M214.679 392.606H209.698C209.312 392.606 209 392.919 209 393.304V410.644C209 411.029 209.312 411.341 209.698 411.341H214.679C215.064 411.341 215.377 411.029 215.377 410.644V393.304C215.377 392.919 215.064 392.606 214.679 392.606Z" fill="white"/>
<path d="M212.027 395.719C212.456 395.719 212.804 395.371 212.804 394.943C212.804 394.514 212.456 394.166 212.027 394.166C211.598 394.166 211.251 394.514 211.251 394.943C211.251 395.371 211.598 395.719 212.027 395.719Z" fill="white"/>
<g opacity="0.06">
<path d="M291.394 728.055C452.327 728.055 582.788 715.156 582.788 699.245C582.788 683.334 452.327 670.435 291.394 670.435C130.462 670.435 4.76837e-06 683.334 4.76837e-06 699.245C4.76837e-06 715.156 130.462 728.055 291.394 728.055Z" fill="black"/>
</g>
<path d="M128.046 656.45C131.486 659.89 135.216 663.168 139.27 666.269C159.521 681.82 187.523 692.963 224.715 696.694C414.903 715.733 477.755 626.51 493.113 489.242C499.96 428.07 483.94 387.697 464.076 361.745C461.993 359.032 459.878 356.481 457.746 354.074C456.535 352.718 455.308 351.394 454.032 350.102C428.387 323.908 391.357 311.57 354.973 317.561C326.373 322.261 300.389 337.538 279.315 368.076C245.595 416.894 277.49 458.866 181.144 461.676C107.391 463.824 60.656 589.221 128.062 656.466L128.046 656.45Z" fill="#FBB416"/>
<path d="M419.214 360.033C419.214 360.033 441.71 408.158 415.742 496.493C389.775 584.829 355.377 577.869 333.156 577.869C294.333 577.869 215.72 541.307 200.362 512.497C185.004 483.687 213.992 481.975 268.269 477.712C322.562 473.449 363.064 340.978 419.214 360.033Z" fill="#F8A81B"/>
<path d="M370.444 614.931C370.864 614.931 371.3 614.769 371.623 614.43C372.237 613.784 372.22 612.767 371.558 612.137C352.147 593.679 333.608 582.81 321.464 576.932C308.27 570.553 299.759 568.567 299.404 568.486C298.532 568.292 297.66 568.825 297.466 569.697C297.273 570.569 297.805 571.441 298.677 571.635C299.065 571.732 332.865 579.806 369.314 614.479C369.62 614.769 370.024 614.931 370.428 614.931H370.444Z" fill="#F8A81B"/>
<path d="M364.033 593.307C364.55 593.307 365.066 593.065 365.373 592.597C365.874 591.854 365.68 590.852 364.937 590.352C364.178 589.835 346.107 577.852 318.137 574.8C317.249 574.703 316.458 575.349 316.361 576.238C316.264 577.126 316.91 577.917 317.798 578.014C344.977 580.985 362.967 592.903 363.145 593.033C363.419 593.226 363.742 593.307 364.049 593.307H364.033Z" fill="#F8A81B"/>
<path d="M422.686 459.657C423.494 459.657 424.188 459.06 424.285 458.236C426.627 439.519 434.685 425.211 441.016 416.507C447.911 407.043 454.339 401.957 454.403 401.908C455.098 401.359 455.227 400.342 454.678 399.631C454.129 398.92 453.111 398.807 452.401 399.357C452.126 399.566 445.618 404.718 438.464 414.504C431.875 423.532 423.51 438.373 421.055 457.832C420.942 458.721 421.572 459.528 422.46 459.641C422.525 459.641 422.589 459.641 422.67 459.641L422.686 459.657Z" fill="#F8A81B"/>
<path d="M128.046 656.45C131.486 659.89 135.216 663.168 139.27 666.269C162.67 680.318 191.238 689.572 222.696 693.189C232.45 694.32 242.301 694.869 252.152 694.869C279.315 694.869 306.542 690.638 332.203 682.321C398.963 660.697 447.136 614.43 467.839 552.062C479.192 517.859 484.764 484.608 484.408 453.214C484.134 428.07 480.048 404.056 472.313 381.835C469.729 374.422 466.919 367.737 464.077 361.745C461.993 359.032 459.878 356.481 457.746 354.074C456.535 352.718 455.308 351.394 454.032 350.102C459.103 358.79 464.529 369.82 469.163 383.143C481.098 417.492 489.996 474.498 464.609 550.98C444.262 612.298 396.864 657.79 331.169 679.075C261.373 701.684 180.644 692.511 130.291 656.272C129.597 655.772 128.66 655.869 128.078 656.466L128.046 656.45Z" fill="#F8A81B"/>
<path d="M406.941 304.448C406.941 304.448 433.2 277.608 394.958 258.698C356.701 239.787 311.645 268.678 304.265 289.753C296.869 310.827 406.957 304.448 406.957 304.448H406.941Z" fill="#5C4DA0"/>
<path d="M361.255 286.038C361.481 286.038 361.724 285.958 361.917 285.796C372.35 276.866 389.839 277.689 390.017 277.689H390.065C390.598 277.689 391.05 277.269 391.067 276.736C391.099 276.171 390.663 275.703 390.114 275.671C389.371 275.622 371.639 274.799 360.593 284.262C360.173 284.617 360.125 285.263 360.48 285.683C360.674 285.909 360.965 286.038 361.255 286.038Z" fill="#4A429A"/>
<path d="M386.9 287.314C387.255 287.314 387.611 287.12 387.788 286.781C388.047 286.281 387.869 285.683 387.368 285.408C386.852 285.134 374.756 278.771 366.181 280.774C365.632 280.903 365.293 281.436 365.422 281.985C365.551 282.534 366.084 282.873 366.633 282.744C374.481 280.919 386.303 287.136 386.416 287.201C386.561 287.282 386.722 287.314 386.884 287.314H386.9Z" fill="#4A429A"/>
<path d="M122.952 640.119L104.65 661.625C104.65 661.625 87.65 662.016 68.0591 659.435C38.3059 655.501 30.6045 649.057 27.1544 655.162C24.4659 659.926 44.2996 676.142 54.2186 680.133C64.1377 684.123 84.6918 698.099 98.9646 702.81C113.225 707.502 123.562 690.422 128.264 684.564C132.953 678.688 148.057 658.652 148.057 658.652L122.968 640.122L122.952 640.119Z" fill="#F79A86"/>
<path d="M37.2884 664.001C36.8385 665.82 36.8036 667.629 37.4708 669.238C37.5821 669.493 37.6968 669.732 37.8431 669.977C41.8191 676.79 61.9952 683.952 61.9952 683.952C60.6728 682.006 60.3561 679.596 60.6492 677.033C61.3948 670.292 66.3261 662.485 68.3817 659.47C68.951 658.649 69.2947 658.193 69.2947 658.193C65.8845 656.599 62.5715 655.405 59.5369 654.534C56.5497 653.672 53.8319 653.099 51.5681 652.721C47.2934 652.017 44.5919 651.991 44.5919 651.991C44.5919 651.991 43.6184 653.007 42.3693 654.625C40.5585 656.95 38.174 660.507 37.3042 664.004L37.2884 664.001Z" fill="#5C4DA0"/>
<path d="M46.9681 661.851L54.001 664.11C54.001 664.11 55.6891 660.802 57.4437 657.806C58.1628 656.588 58.9069 655.408 59.5335 654.55C56.5464 653.688 53.8286 653.115 51.5648 652.736C50.9381 653.594 50.1491 654.831 49.3933 656.223C48.4278 657.983 47.4912 659.997 46.9839 661.854L46.9681 661.851Z" fill="#4A429A"/>
<path d="M28.9416 659.286C28.9416 659.286 91.5217 694.671 100.214 698.138C108.888 701.619 114.175 700.886 114.175 700.886C114.175 700.886 113.114 704.508 111.625 707.808C109.88 711.698 105.139 713.206 101.417 711.134C84.6528 701.804 29.2577 670.773 25.906 666.633C21.9508 661.755 23.8638 657.851 28.9416 659.286Z" fill="#5C4DA0"/>
<path d="M185.44 634.616L186.328 656.918C186.328 656.918 174.087 668.74 157.938 680.108C133.392 697.388 123.363 697.872 124.962 704.687C126.205 710 151.802 708.499 161.782 704.704C171.778 700.925 196.373 697.259 210.051 691.058C223.73 684.84 219.741 665.284 219.224 657.79C218.691 650.297 217.577 633.405 217.577 633.405L185.44 634.616Z" fill="#F79A86"/>
<path d="M138.398 704.316C139.302 705.963 140.497 707.32 142.096 708.046C142.338 708.159 142.597 708.256 142.871 708.337C150.413 710.663 170.098 702.249 170.098 702.249C167.821 701.716 165.948 700.166 164.414 698.082C160.393 692.624 158.729 683.548 158.213 679.931C158.067 678.946 158.019 678.364 158.019 678.364C154.418 679.511 151.188 680.884 148.362 682.289C145.584 683.677 143.194 685.099 141.272 686.358C137.655 688.732 135.652 690.541 135.652 690.541C135.652 690.541 135.62 691.946 135.798 693.981C136.04 696.92 136.702 701.151 138.43 704.316H138.398Z" fill="#5C4DA0"/>
<path d="M144.05 696.177L150.752 693.076C150.752 693.076 149.751 689.491 149.008 686.1C148.701 684.711 148.459 683.354 148.329 682.289C145.552 683.677 143.162 685.099 141.24 686.358C141.369 687.408 141.611 688.861 141.999 690.395C142.483 692.349 143.162 694.465 144.05 696.177Z" fill="#4A429A"/>
<path d="M129.047 706.512C129.047 706.512 199.054 690.105 207.79 686.778C216.527 683.451 219.918 679.333 219.918 679.333C219.918 679.333 221.598 682.725 222.744 686.148C224.085 690.186 221.63 694.513 217.496 695.515C198.844 700.02 137.074 714.748 131.809 713.973C125.592 713.069 124.348 708.902 129.064 706.496L129.047 706.512Z" fill="#5C4DA0"/>
<path d="M161.62 457.461C179.384 443.799 243.189 449.419 293.171 456.492C294.592 479.133 287.615 460.335 291.83 482.605C229.43 485.803 211.892 490.728 211.892 490.728C211.892 490.728 221.226 541.517 220.774 562.753C220.322 583.989 227.848 645.436 227.848 645.436L182.856 653.915C182.856 653.915 136.185 477.017 161.62 457.461Z" fill="white"/>
<path d="M180.579 644.031C180.773 644.096 180.983 644.112 181.193 644.064L225.619 634.988C226.281 634.859 226.701 634.213 226.572 633.551C226.443 632.889 225.797 632.469 225.135 632.598L180.708 641.674C180.046 641.803 179.626 642.449 179.756 643.111C179.852 643.547 180.159 643.886 180.563 644.015L180.579 644.031Z" fill="#D8D8D8"/>
<path d="M217.076 635.392C217.27 635.456 217.496 635.472 217.706 635.424C218.368 635.279 218.772 634.633 218.643 633.987C218.594 633.761 213.846 611.313 213.572 575.026C213.297 538.481 202.09 484.042 201.977 483.509C201.848 482.847 201.202 482.427 200.539 482.573C199.877 482.702 199.457 483.348 199.603 484.01C199.716 484.559 210.875 538.755 211.133 575.059C211.408 611.604 216.204 634.277 216.253 634.503C216.349 634.939 216.656 635.262 217.06 635.392H217.076Z" fill="#D8D8D8"/>
<path d="M233.597 223.493C235.97 223.977 239.2 221.329 242.236 220.311C246.225 218.971 251.78 215.741 254.445 213.077C258.434 209.104 269.544 196.734 269.351 192.051C269.141 187.367 258.741 197.299 256.561 199.285C254.38 201.272 252.168 201.821 252.168 201.821C252.168 201.821 274.292 177.21 273.711 173.511C273.13 169.813 259.144 182.571 255.705 185.736C255.705 185.736 271.337 166.26 270.239 164.032C268.026 159.559 250.036 180.682 250.036 180.682C250.036 180.682 262.358 163.628 259.5 161.69C256.464 159.623 243.318 177.936 243.318 177.936C243.318 177.936 249.73 165.647 248.034 162.853C246.338 160.043 230.884 184.816 228.962 188.901C227.04 192.987 220.968 203.597 219.402 209.298C218.336 213.174 226.12 221.943 233.613 223.477L233.597 223.493Z" fill="#F79A86"/>
<path d="M236.762 182.765C236.907 182.329 237.343 182.054 237.811 182.135C248.712 184.105 254.348 193.504 254.574 193.908C254.833 194.344 254.687 194.925 254.251 195.184C253.815 195.442 253.234 195.297 252.975 194.861C252.927 194.764 247.517 185.801 237.472 183.976C236.972 183.879 236.633 183.395 236.729 182.894C236.729 182.862 236.746 182.813 236.762 182.781V182.765Z" fill="#F3796B"/>
<path d="M229.995 205.164C230.108 204.808 230.415 204.55 230.803 204.518C241.849 203.629 244.723 195.442 244.756 195.345C244.917 194.861 245.45 194.602 245.934 194.764C246.419 194.925 246.677 195.442 246.532 195.926C246.403 196.33 243.221 205.39 230.98 206.375C230.464 206.423 230.028 206.036 229.979 205.519C229.979 205.39 229.979 205.277 230.011 205.164H229.995Z" fill="#F3796B"/>
<path d="M288.665 300.637H288.746V300.621H287.971L286.856 300.653C286.081 300.653 285.29 300.653 284.482 300.653C282.867 300.637 281.204 300.605 279.541 300.508C276.198 300.33 272.823 300.088 269.464 299.668C267.784 299.458 266.105 299.248 264.425 298.99C262.746 298.731 261.082 298.441 259.435 298.134C257.772 297.827 256.125 297.456 254.477 297.084C252.83 296.713 251.199 296.309 249.584 295.873C236.616 292.401 224.392 287.007 213.539 279.659C212.861 279.207 212.183 278.739 211.521 278.254C210.842 277.786 210.197 277.302 209.534 276.801L209.034 276.43C209.244 276.575 209.438 276.769 209.664 276.963C210.083 277.35 210.536 277.802 210.939 278.287C211.343 278.787 211.715 279.304 212.021 279.837C212.328 280.354 212.57 280.871 212.764 281.339C213.152 282.276 213.297 283.035 213.362 283.487C213.426 283.955 213.41 284.165 213.394 284.181C213.362 284.213 213.378 283.567 213.572 282.663C213.749 281.759 214.072 280.596 214.476 279.336C214.896 278.077 215.397 276.704 215.994 275.283C217.157 272.441 218.626 269.437 220.193 266.385C223.39 260.28 227.121 254.047 231.045 247.862C232.999 244.761 235.034 241.661 237.085 238.592C238.102 237.042 239.136 235.508 240.185 233.99L243.205 229.565L215.768 205.6L214.605 206.827L213.539 207.974L211.44 210.267C210.067 211.801 208.727 213.351 207.387 214.918C204.722 218.051 202.138 221.232 199.587 224.51C194.516 231.067 189.671 237.898 185.165 245.423C182.905 249.186 180.757 253.143 178.722 257.454C177.721 259.618 176.752 261.895 175.831 264.318C174.927 266.756 174.071 269.356 173.377 272.295C172.682 275.235 172.101 278.513 171.988 282.518C171.939 284.504 172.036 286.717 172.392 289.139C172.747 291.545 173.409 294.258 174.555 297.036C175.121 298.425 175.831 299.846 176.639 301.218C177.462 302.591 178.399 303.948 179.433 305.207C180.466 306.451 181.596 307.646 182.775 308.679C183.357 309.212 183.97 309.681 184.552 310.149L185.246 310.666C186.167 311.36 187.103 312.054 188.04 312.733C188.977 313.411 189.929 314.073 190.882 314.735C192.788 316.043 194.726 317.303 196.696 318.53C198.666 319.725 200.652 320.904 202.671 322.002C204.69 323.117 206.724 324.166 208.775 325.184C210.843 326.185 212.91 327.154 215.009 328.042C223.39 331.676 232.03 334.453 240.767 336.472C245.127 337.473 249.52 338.281 253.912 338.894C258.305 339.492 262.713 339.96 267.138 340.17C269.351 340.283 271.563 340.348 273.776 340.38C275.988 340.412 278.2 340.38 280.429 340.283C282.658 340.202 284.886 340.073 287.147 339.863C288.277 339.75 289.424 339.637 290.587 339.492C291.168 339.427 291.766 339.346 292.379 339.266L294.559 338.927L288.697 300.637H288.665Z" fill="#5C4DA0"/>
<path d="M184.035 289.882C184.1 290.463 184.6 290.931 185.214 290.948C194.483 291.19 204.674 288.541 205.093 288.428C205.739 288.267 206.127 287.589 205.965 286.943C205.804 286.297 205.126 285.909 204.48 286.071C204.383 286.103 194.193 288.735 185.262 288.509C184.6 288.493 184.035 289.026 184.019 289.688C184.019 289.753 184.019 289.801 184.019 289.866L184.035 289.882Z" fill="#4A429A"/>
<path d="M194.16 295.453C194.193 295.679 194.274 295.889 194.419 296.067C194.839 296.584 195.598 296.664 196.131 296.245C196.421 296.018 203.123 290.56 204.964 288.267C205.384 287.75 205.303 286.991 204.787 286.555C204.27 286.135 203.511 286.216 203.075 286.733C201.379 288.816 194.661 294.307 194.58 294.355C194.241 294.63 194.096 295.033 194.144 295.437L194.16 295.453Z" fill="#4A429A"/>
<path d="M212.926 213.287C212.958 213.545 213.103 213.803 213.346 213.949C222.567 219.472 237.65 232.633 237.795 232.762C238.167 233.085 238.748 233.053 239.087 232.682C239.426 232.31 239.394 231.729 239.023 231.406C238.877 231.277 223.665 218.018 214.315 212.398C213.879 212.14 213.313 212.285 213.055 212.705C212.942 212.883 212.893 213.093 212.926 213.287Z" fill="#4A429A"/>
<path d="M283.966 301.832C280.784 311.489 286.065 334.97 280.946 376.263C280.574 379.299 280.138 382.432 279.638 385.678C279.169 388.714 278.653 391.863 278.071 395.109C277.522 398.129 276.925 401.246 276.279 404.427C275.697 407.221 275.084 410.096 274.405 413.019C273.711 416.038 272.984 419.107 272.193 422.256C271.967 423.144 271.725 424.113 271.466 425.114C271.402 425.373 271.337 425.615 271.272 425.873C271.208 426.099 271.159 426.325 271.095 426.568C271.046 426.745 271.014 426.923 270.966 427.084L270.869 427.472C270.804 427.698 270.756 427.94 270.691 428.166C270.691 428.215 270.675 428.263 270.659 428.296C270.594 428.57 270.513 428.861 270.433 429.152C270.433 429.2 270.417 429.232 270.4 429.281C270.336 429.523 270.271 429.781 270.207 430.024C269.9 431.186 269.577 432.414 269.254 433.673C269.173 433.98 269.092 434.303 268.995 434.626C268.882 435.046 268.769 435.482 268.656 435.918C268.43 436.774 268.188 437.63 267.962 438.518C267.849 438.954 267.72 439.406 267.607 439.842C267.348 440.795 267.09 441.748 266.815 442.733C266.767 442.911 266.718 443.088 266.67 443.266C266.04 445.591 265.362 447.981 264.684 450.436C264.377 451.534 264.054 452.665 263.747 453.779C263.359 455.135 262.972 456.508 262.584 457.881C262.003 459.899 261.421 461.918 260.824 463.937L260.065 466.504C259.839 467.28 259.597 468.055 259.371 468.83C259.096 469.75 258.821 470.687 258.547 471.608C258.369 472.221 258.176 472.835 257.982 473.449C257.869 473.836 257.756 474.208 257.643 474.595C257.417 475.354 257.174 476.113 256.948 476.872C256.722 477.631 256.48 478.374 256.254 479.117C256.092 479.65 255.931 480.167 255.769 480.683C255.624 481.152 255.479 481.604 255.333 482.056C255.285 482.185 255.253 482.298 255.22 482.427C255.139 482.686 255.059 482.96 254.962 483.219C254.784 483.752 254.623 484.301 254.445 484.817C254.251 485.431 254.041 486.061 253.848 486.675C252.249 491.584 250.682 496.154 249.213 500.111C260.13 512.659 278.669 523.624 300.47 530.196L312.566 522.332L322.691 535.17C343.992 538.287 366.81 537.06 387.837 529.405C394.781 515.21 406.23 463.129 409.476 447.562C410.122 444.461 410.704 441.344 411.237 438.227C413.82 423.225 415.193 407.996 416.114 391.993C416.162 391.12 416.211 390.248 416.259 389.376C416.259 389.279 416.259 389.166 416.275 389.07C417.26 375.585 434.879 335.858 433.102 321.566C429.582 293.241 411.527 300.702 395.249 296.325C389.904 294.888 385.414 293.079 381.732 291.222C380.198 290.447 378.809 289.672 377.55 288.913C377.017 288.606 376.532 288.299 376.064 287.976C371.009 284.698 368.248 281.936 368.248 281.936L331.315 278.077C327.665 282.372 323.353 284.876 318.815 286.49C318.315 286.668 317.814 286.83 317.297 286.991C316.538 287.233 315.779 287.443 315.02 287.637C301.972 291.028 288.164 289.171 283.982 301.832H283.966Z" fill="#5C4DA0"/>
<path d="M376.661 500.66C377.065 500.66 377.453 500.401 377.614 499.998C397.817 445.753 408.281 352.088 408.378 351.151C408.443 350.602 408.039 350.102 407.49 350.037C406.941 349.973 406.44 350.376 406.376 350.925C406.279 351.862 395.847 445.285 375.725 499.287C375.531 499.804 375.789 500.385 376.322 500.595C376.435 500.644 376.564 500.66 376.678 500.66H376.661Z" fill="#4A429A"/>
<path d="M340.94 300.863C340.552 302.042 341.957 303.56 344.089 304.254C346.22 304.949 348.255 304.577 348.643 303.399C349.03 302.22 347.625 300.702 345.494 300.007C343.362 299.313 341.327 299.684 340.94 300.863Z" fill="#4A429A"/>
<path d="M324.435 296.664C324.048 297.843 325.453 299.361 327.584 300.056C329.716 300.75 331.751 300.379 332.138 299.2C332.526 298.021 331.121 296.503 328.989 295.808C326.858 295.114 324.823 295.486 324.435 296.664Z" fill="#4A429A"/>
<path d="M319.768 305.482C320.22 305.482 320.624 305.175 320.753 304.723C320.899 304.19 320.559 303.625 320.027 303.495C305.783 299.846 304.895 291.271 304.863 290.915C304.814 290.366 304.33 289.946 303.781 289.995C303.231 290.043 302.812 290.528 302.86 291.077C302.892 291.497 303.813 301.428 319.542 305.466C319.623 305.482 319.704 305.498 319.8 305.498L319.768 305.482Z" fill="#4A429A"/>
<path d="M297.886 394.786C316.877 394.786 333.333 389.909 344.347 385.484C358.074 379.978 366.601 373.938 366.681 373.873C367.133 373.55 367.246 372.92 366.923 372.468C366.601 372.016 365.971 371.903 365.519 372.226C365.438 372.291 357.073 378.217 343.556 383.627C331.105 388.617 311.581 394.205 289.359 392.412C288.794 392.364 288.31 392.784 288.277 393.333C288.229 393.882 288.649 394.383 289.198 394.415C292.153 394.657 295.06 394.754 297.902 394.754L297.886 394.786Z" fill="#4A429A"/>
<path d="M355.377 430.524C355.377 430.524 309.998 418.961 281.721 418.622L273.081 456.04C273.081 456.04 317.895 463.581 346.253 468.523L355.377 430.524Z" fill="#4A429A"/>
<path d="M380.828 314.251C389.565 314.251 396.25 311.812 400.804 309.293C408.055 305.288 411.592 300.363 411.737 300.153C412.06 299.7 411.947 299.071 411.495 298.748C411.043 298.425 410.413 298.538 410.09 298.99C410.09 298.99 406.634 303.802 399.755 307.565C393.408 311.037 382.733 314.364 367.876 310.472C367.343 310.327 366.778 310.65 366.649 311.199C366.504 311.732 366.827 312.297 367.376 312.426C372.301 313.718 376.807 314.235 380.844 314.235L380.828 314.251Z" fill="#4A429A"/>
<path d="M264.635 450.436C265.313 447.981 265.992 445.591 266.621 443.266C265.976 445.591 265.313 447.981 264.635 450.436Z" fill="#28100C"/>
<path d="M267.93 438.518C268.172 437.63 268.398 436.774 268.624 435.918C268.398 436.774 268.156 437.63 267.93 438.518Z" fill="#28100C"/>
<path d="M277.91 390.135C277.91 390.135 278.055 390.184 278.136 390.184C278.798 390.265 279.412 389.796 279.492 389.134C281.705 372.242 284.143 352.169 284.369 346.501C284.402 345.838 283.885 345.273 283.207 345.241C282.544 345.209 281.979 345.725 281.947 346.404C281.721 351.991 279.282 371.968 277.086 388.827C277.005 389.409 277.361 389.958 277.91 390.135Z" fill="#4A429A"/>
<path d="M322.077 201.546C322.077 201.546 310.369 210.751 318.056 224.785C318.056 224.785 322.271 208.393 322.077 201.546Z" fill="#28100C"/>
<path d="M368.958 264.867C368.958 264.867 376.548 272.247 378.115 266.805C379.681 261.362 377.033 258.649 377.033 258.649C377.033 258.649 385.237 266.53 385.366 260.587C385.495 254.661 381.215 249.348 381.215 249.348C381.215 249.348 388.822 243.776 386.335 234.862C383.848 225.948 383.541 219.423 386.028 212.124C388.515 204.825 387.384 197.283 383.783 194.021C378.519 189.241 370.864 189.983 370.864 189.983C370.864 189.983 366.794 176.644 351.55 177C336.305 177.355 327.423 165.453 319.736 168.554C312.049 171.654 303.231 197.057 323.918 204.582C323.918 204.582 364.905 232.068 368.958 264.867Z" fill="#28100C"/>
<path d="M330.249 272.118L329.248 281.759C330.281 282.792 331.331 283.697 332.413 284.504C348.094 296.293 367.44 285.748 367.44 285.748L370.928 252.351L335.11 269.776L330.265 272.134L330.249 272.118Z" fill="#F79A86"/>
<path d="M330.346 271.278L329.248 281.759C330.281 282.792 331.331 283.697 332.413 284.504C347.238 280.354 359.172 266.498 359.172 266.498L335.11 269.776L330.346 271.294V271.278Z" fill="#28100C"/>
<path d="M322.675 228.16C322.675 228.16 317.879 221.119 314.116 227.272C310.353 233.425 311.354 246.748 319.914 245.472L322.691 228.16H322.675Z" fill="#F3796B"/>
<path d="M314.471 250.22C314.471 250.22 312.356 270.131 333.091 272.247C353.681 274.363 369.41 259.651 370.218 258.989H370.25L370.912 254.806L374.352 233.198L376.193 221.652C376.193 221.652 381.005 201.013 361.53 195.119C347.302 190.807 333.43 191.808 325.776 198.656C325.533 198.882 325.291 199.108 325.065 199.334C322.627 201.772 320.915 204.873 320.14 208.668L317.313 229.452L316.619 234.555L314.487 250.203L314.471 250.22Z" fill="#F79A86"/>
<path d="M374.336 233.215C374.336 233.215 369.669 234.668 367.618 240.336C364.533 240.013 362.386 237.139 362.951 234.087C363.274 232.31 363.694 230.195 364.178 227.805C365.664 220.651 367.941 218.39 363.791 213.9C359.64 209.411 363.548 206.746 359.769 203.581C355.619 200.109 345.381 206.262 337.839 204.695C328.892 202.838 329.651 196.766 321.851 203.726C321.851 203.726 323.918 193.246 334.092 190.42C344.266 187.577 372.85 190.08 377.227 203.694C381.603 217.308 374.336 233.215 374.336 233.215Z" fill="#28100C"/>
<path d="M357.945 218.18C356.572 220.538 353.568 221.361 351.178 220.021C349.789 219.246 348.142 218.454 346.366 217.873C343.863 217.049 342.538 214.304 343.507 211.849C343.507 211.849 353.843 211.979 357.945 218.196V218.18Z" fill="#28100C"/>
<path d="M319.623 213.884C320.43 216.323 323.046 217.663 325.501 216.904C326.938 216.452 328.618 216.048 330.346 215.854C332.817 215.58 334.561 213.303 334.157 210.848C334.157 210.848 324.597 208.959 319.623 213.884Z" fill="#28100C"/>
<path d="M344.04 234.878C343.895 236.331 346.753 237.817 350.435 238.205C354.117 238.592 357.234 237.72 357.379 236.283C357.525 234.83 354.666 233.344 350.984 232.956C347.302 232.569 344.186 233.441 344.04 234.878Z" fill="#F3796B"/>
<path d="M316.587 234.587C317.104 234.7 317.636 234.781 318.186 234.83C321.868 235.217 324.984 234.345 325.13 232.892C325.275 231.438 322.417 229.952 318.735 229.565C318.234 229.516 317.75 229.484 317.281 229.484L316.587 234.587Z" fill="#F3796B"/>
<path d="M343.653 226.771C343.443 228.757 344.186 230.469 345.3 230.582C346.414 230.695 347.48 229.177 347.69 227.191C347.9 225.205 347.157 223.493 346.043 223.38C344.928 223.267 343.863 224.785 343.653 226.771Z" fill="#28100C"/>
<path d="M323.644 224.672C323.434 226.658 324.177 228.37 325.291 228.483C326.405 228.596 327.471 227.078 327.681 225.092C327.891 223.105 327.148 221.393 326.034 221.28C324.92 221.167 323.854 222.685 323.644 224.672Z" fill="#28100C"/>
<path d="M330.152 245.262C337.435 246.021 344.04 240.401 344.137 240.32C344.476 240.03 344.525 239.497 344.218 239.157C343.927 238.818 343.394 238.77 343.055 239.077C342.619 239.448 332.381 248.136 324.048 240.772C323.709 240.466 323.192 240.498 322.885 240.837C322.578 241.176 322.61 241.693 322.949 242C325.275 244.067 327.746 245.003 330.152 245.262Z" fill="#28100C"/>
<path d="M364.566 250.236C364.63 250.462 366.617 256.825 370.202 258.989H370.218L370.88 254.806C370.88 254.806 367.666 253.902 364.55 250.22L364.566 250.236Z" fill="#28100C"/>
<path d="M369.653 236.784C369.653 236.784 378.728 226.916 383.686 235.928C387.772 243.356 376.791 260.458 367.925 253.272L369.653 236.767V236.784Z" fill="#F79A86"/>
<path d="M369.362 250.187C369.782 250.236 370.169 249.961 370.25 249.541C371.978 241.531 379.051 239.432 379.358 239.335C379.794 239.206 380.053 238.754 379.924 238.318C379.794 237.882 379.342 237.623 378.906 237.753C378.567 237.849 370.589 240.191 368.635 249.186C368.538 249.638 368.829 250.074 369.265 250.171C369.297 250.171 369.33 250.171 369.362 250.171V250.187Z" fill="#28100C"/>
<path d="M377.517 246.021C377.76 246.053 378.002 245.972 378.179 245.779C378.502 245.456 378.502 244.939 378.179 244.616C377.873 244.309 375.176 241.693 372.656 242.064C372.204 242.129 371.897 242.549 371.962 243.001C372.027 243.453 372.447 243.76 372.899 243.695C374.352 243.485 376.355 245.133 377.017 245.779C377.162 245.924 377.34 245.989 377.517 246.021Z" fill="#28100C"/>
<path d="M334.464 235.944C334.916 235.992 335.32 235.669 335.368 235.217C335.417 234.765 335.094 234.361 334.641 234.313C331.622 233.99 330.378 232.262 329.991 231.519C333.963 225.124 337.92 218.68 337.968 218.6C338.21 218.212 338.081 217.711 337.694 217.469C337.306 217.227 336.805 217.356 336.563 217.744C336.515 217.808 332.413 224.51 328.359 231.018C328.23 231.228 328.198 231.487 328.279 231.729C328.327 231.874 329.619 235.443 334.464 235.944Z" fill="#28100C"/>
<g opacity="0.5">
<path d="M334.076 226.545C333.915 229.323 338.404 231.842 344.137 232.197C349.854 232.553 354.634 230.582 354.795 227.805C354.957 225.027 350.468 222.508 344.735 222.152C339.018 221.813 334.238 223.767 334.076 226.545Z" fill="white"/>
</g>
<g opacity="0.5">
<path d="M307.576 225.431C307.414 228.208 311.904 230.728 317.636 231.083C323.353 231.438 328.133 229.468 328.295 226.69C328.456 223.913 323.967 221.393 318.234 221.038C312.517 220.699 307.737 222.653 307.576 225.431Z" fill="white"/>
</g>
<path d="M328.246 226.658C328.392 226.658 328.537 226.61 328.65 226.513C330.83 224.607 333.705 226.48 333.818 226.561C334.092 226.739 334.48 226.674 334.658 226.4C334.835 226.125 334.771 225.754 334.496 225.56C333.204 224.688 330.152 223.59 327.859 225.608C327.6 225.834 327.584 226.206 327.794 226.464C327.907 226.61 328.085 226.674 328.246 226.674V226.658Z" fill="#28100C"/>
<path d="M376.694 229.452C376.871 229.452 377.049 229.371 377.178 229.21C377.388 228.951 377.34 228.564 377.065 228.354C367.925 221.264 355.054 226.384 354.521 226.593C354.214 226.723 354.069 227.078 354.182 227.385C354.311 227.692 354.666 227.837 354.973 227.724C355.102 227.675 367.731 222.653 376.322 229.323C376.435 229.403 376.564 229.452 376.694 229.452Z" fill="#28100C"/>
<path d="M393.731 512.594C393.731 512.594 390.873 595.939 290.28 562.753C236.552 545.021 212.716 531.408 212.716 531.408C212.716 531.408 195.775 578.434 186.667 597.619C177.559 616.804 152.254 663.766 152.254 663.766L108.845 653.075C108.845 653.075 159.392 477.147 190.608 469.702C221.824 462.257 259.274 474.094 325.323 489.081C325.323 489.081 383.008 497.914 393.715 512.594H393.731Z" fill="white"/>
<path d="M151.026 647.972C151.543 648.149 152.141 647.94 152.431 647.455C166.449 624.782 180.369 590.433 191.544 562.834C196.244 551.223 200.313 541.178 203.705 533.685C208.291 523.527 210.164 521.508 210.875 521.201C213.992 519.861 224.23 524.496 237.182 530.342C255.947 538.82 284.289 551.642 317.265 558.49C334.173 561.994 348.837 559.701 360.803 551.659C382.12 537.351 387.384 510.236 387.594 509.09C387.724 508.427 387.288 507.798 386.625 507.685C385.963 507.555 385.334 507.991 385.204 508.654C385.156 508.928 379.891 535.946 359.43 549.672C348.013 557.327 333.996 559.491 317.75 556.132C285.048 549.349 256.835 536.592 238.167 528.146C223.1 521.331 214.008 517.229 209.906 518.989C206.175 520.588 200.265 534.815 189.284 561.929C178.141 589.431 164.269 623.684 150.348 646.179C149.993 646.744 150.17 647.503 150.736 647.843C150.816 647.891 150.897 647.939 150.994 647.956L151.026 647.972Z" fill="#D8D8D8"/>
<path d="M114.093 639.607C114.093 639.607 114.142 639.607 114.158 639.623L158.035 651.218C158.681 651.395 159.343 651.008 159.521 650.362C159.698 649.716 159.311 649.038 158.665 648.876L114.788 637.281C114.142 637.103 113.48 637.491 113.302 638.137C113.141 638.767 113.496 639.397 114.093 639.59V639.607Z" fill="#D8D8D8"/>
<path d="M163.108 463.275L161.548 479.803C161.524 480.06 161.713 480.289 161.971 480.313L295.03 492.867C295.287 492.892 295.515 492.703 295.54 492.445L297.099 475.917C297.123 475.66 296.934 475.431 296.677 475.407L163.618 462.853C163.36 462.828 163.132 463.017 163.108 463.275Z" fill="#28100C"/>
<path d="M147.49 478.939C142.451 478.471 138.349 474.66 137.51 469.67L121.296 373.453C120.311 367.575 125.155 362.359 131.098 362.908L191.092 368.56C195.146 368.948 198.44 371.968 199.167 375.973L219.111 485.69L147.49 478.939Z" fill="#28100C"/>
<path d="M181.79 459.124L181.08 453.957L185.149 454.263L183.922 449.499L189.316 449.919L190.543 454.683L193.87 454.942L192.643 450.178L198.036 450.598L199.264 455.362L203.979 455.717L204.69 460.885L200.62 460.578L201.718 464.954L206.434 465.309L207.144 470.477L203.075 470.17L204.302 474.934L198.908 474.514L197.681 469.75L194.354 469.492L195.582 474.256L190.188 473.836L188.961 469.072L184.245 468.717L183.534 463.549L187.604 463.856L186.506 459.48L181.79 459.124ZM192.998 464.276L196.325 464.534L195.226 460.158L191.9 459.899L192.998 464.276Z" fill="#4A429A"/>
<path d="M128.692 389.296C130.097 395.578 135.798 401.068 141.434 401.569C147.07 402.07 150.493 397.37 149.088 391.088C147.683 384.806 141.983 379.315 136.347 378.815C130.711 378.314 127.287 383.014 128.692 389.296Z" fill="#FBB416"/>
<path d="M140.093 388.165C140.368 389.425 140.998 390.474 141.482 390.523C141.967 390.571 142.144 389.586 141.854 388.327C141.579 387.067 140.949 386.017 140.465 385.969C139.98 385.92 139.803 386.906 140.093 388.165Z" fill="#28100C"/>
<path d="M134.764 387.697C135.039 388.956 135.669 390.006 136.153 390.055C136.638 390.103 136.815 389.118 136.524 387.858C136.25 386.599 135.62 385.549 135.136 385.501C134.651 385.452 134.474 386.437 134.764 387.697Z" fill="#28100C"/>
<path d="M140.045 395.723C144.438 396.111 144.341 391.298 144.341 391.25C144.341 390.991 144.115 390.717 143.872 390.636C143.614 390.555 143.42 390.701 143.436 390.975C143.436 391.153 143.485 395.061 139.835 394.738C136.169 394.415 134.441 390.345 134.377 390.184C134.264 389.909 133.989 389.715 133.763 389.764C133.537 389.796 133.44 390.055 133.553 390.329C133.569 390.378 135.669 395.352 140.061 395.739L140.045 395.723Z" fill="#28100C"/>
<path d="M199.167 375.989L218.949 484.801L225.813 485.447L206.03 376.635C205.303 372.63 202.009 369.594 197.956 369.222L191.092 368.576C195.146 368.964 198.44 371.984 199.167 375.989Z" fill="#28100C"/>
<path d="M218.336 484.075C218.336 484.075 218.449 484.075 218.513 484.058C219.062 483.962 219.434 483.429 219.321 482.88L199.764 374.309C199.667 373.76 199.134 373.389 198.585 373.486C198.036 373.583 197.665 374.115 197.778 374.665L217.335 483.235C217.415 483.719 217.851 484.075 218.336 484.075Z" fill="#5A4C54"/>
<path d="M177.349 426.051C178.157 432.075 174.039 436.499 168.144 435.95C162.25 435.401 156.824 430.056 156.016 424.032C155.209 418.009 159.327 413.584 165.221 414.133C171.116 414.682 176.542 420.027 177.349 426.035V426.051Z" fill="white"/>
<path d="M315.876 425.954C316.296 425.954 316.7 425.68 316.829 425.26C328.553 390.265 345.494 303.092 345.655 302.204C345.768 301.654 345.397 301.122 344.848 301.025C344.299 300.912 343.766 301.283 343.669 301.832C343.507 302.704 326.599 389.748 314.907 424.63C314.73 425.163 315.02 425.728 315.537 425.906C315.65 425.938 315.747 425.954 315.86 425.954H315.876Z" fill="white"/>
<path d="M290.813 422.627C291.314 422.627 291.75 422.256 291.814 421.755C298.952 369.658 328.747 299.539 329.054 298.828C329.28 298.312 329.038 297.714 328.521 297.504C328.004 297.278 327.407 297.52 327.197 298.037C326.89 298.748 296.982 369.109 289.812 421.481C289.731 422.03 290.119 422.547 290.684 422.627C290.732 422.627 290.781 422.627 290.829 422.627H290.813Z" fill="white"/>
<path d="M362.806 558.522C364.953 558.522 367.263 557.779 369.621 556.31C378.212 550.932 388.612 534.621 392.472 510.333C392.552 509.784 392.181 509.267 391.632 509.17C391.083 509.073 390.566 509.461 390.469 510.01C386.706 533.685 376.742 549.462 368.539 554.598C365.745 556.342 363.096 556.907 360.884 556.229C359.108 555.68 357.719 554.468 356.685 552.498C349.531 539.014 361.966 498.399 362.095 497.995C362.257 497.462 361.966 496.897 361.433 496.735C360.9 496.574 360.335 496.865 360.173 497.398C359.64 499.093 347.367 539.24 354.909 553.451C356.201 555.89 358.026 557.472 360.319 558.167C361.126 558.409 361.966 558.538 362.822 558.538L362.806 558.522Z" fill="white"/>
<path d="M419.892 443.521C418.168 442.078 414.33 442.837 411.39 442.334C407.53 441.677 401.528 441.886 398.177 442.882C393.151 444.386 378.565 449.649 376.676 453.569C374.777 457.501 387.701 453.935 390.365 453.269C393.04 452.592 395.091 453.123 395.091 453.123C395.091 453.123 366.089 463.586 364.934 466.867C363.779 470.147 380.886 465.857 385.102 464.766C385.102 464.766 363.678 473.864 363.601 476.185C363.448 480.828 387.536 471.42 387.536 471.42C387.536 471.42 369.912 479.988 371.394 482.843C372.974 485.879 391.834 476.633 391.834 476.633C391.834 476.633 381.149 483.9 381.313 486.956C381.476 490.013 405.071 476.484 408.454 473.969C411.837 471.453 421.498 465.417 425.293 461.427C427.882 458.718 425.358 448.081 419.869 443.521L419.892 443.521Z" fill="#F79A86"/>
<path d="M399.33 475.566C399.019 475.873 398.529 475.899 398.189 475.624C390.106 469.203 389.63 459.005 389.605 458.583C389.59 458.103 389.966 457.703 390.446 457.688C390.925 457.673 391.325 458.049 391.34 458.529C391.34 458.529 391.829 468.385 399.267 474.288C399.631 474.586 399.704 475.12 399.408 475.506C399.386 475.53 399.353 475.565 399.33 475.589L399.33 475.566Z" fill="#F3796B"/>
<path d="M414.777 460.165C414.545 460.412 414.159 460.493 413.823 460.332C404.371 456.193 398.395 461.657 398.328 461.705C397.983 462.024 397.435 462.018 397.104 461.663C396.785 461.319 396.802 460.781 397.135 460.451C397.412 460.179 404.022 454.136 414.527 458.734C414.967 458.926 415.154 459.434 414.962 459.874C414.908 459.979 414.843 460.072 414.776 460.143L414.777 460.165Z" fill="#F3796B"/>
<path d="M404.354 347.545L404.285 347.525L404.332 347.569L404.529 347.665L404.97 347.903L405.946 348.421C406.62 348.789 407.329 349.166 408.038 349.567C409.457 350.368 410.888 351.204 412.321 352.085C415.175 353.858 418.032 355.723 420.79 357.717C422.17 358.725 423.549 359.733 424.906 360.765C426.253 361.808 427.588 362.863 428.902 363.965C430.215 365.044 431.495 366.181 432.764 367.307C434.033 368.433 435.28 369.582 436.493 370.767C446.268 380.174 454.475 390.966 460.546 402.877C460.935 403.618 461.301 404.361 461.667 405.127C462.045 405.88 462.377 406.635 462.731 407.39L462.989 407.965C462.879 407.728 462.791 407.468 462.679 407.186C462.491 406.632 462.3 406.009 462.189 405.373C462.066 404.726 461.989 404.077 461.981 403.449C461.961 402.833 461.989 402.238 462.03 401.722C462.135 400.691 462.362 399.93 462.52 399.502C462.678 399.052 462.809 398.865 462.82 398.853C462.865 398.829 462.54 399.41 461.946 400.137C461.352 400.864 460.534 401.757 459.57 402.713C458.606 403.668 457.505 404.65 456.313 405.636C453.942 407.64 451.229 409.655 448.4 411.651C442.697 415.621 436.453 419.46 430.067 423.166C426.88 425.024 423.624 426.839 420.343 428.632C418.715 429.539 417.074 430.413 415.433 431.286L410.68 433.822L423.464 468.772L425.07 468.22L426.561 467.694L429.487 466.632C431.418 465.898 433.337 465.152 435.267 464.396C439.092 462.849 442.88 461.223 446.677 459.494C454.246 456.014 461.747 452.182 469.292 447.549C473.059 445.239 476.83 442.711 480.669 439.781C482.588 438.305 484.516 436.725 486.46 434.963C488.417 433.211 490.389 431.253 492.408 428.94C494.415 426.615 496.491 423.935 498.483 420.377C499.467 418.598 500.432 416.558 501.272 414.178C502.102 411.833 502.804 409.058 503.109 405.998C503.266 404.462 503.319 402.85 503.257 401.218C503.183 399.575 503.005 397.901 502.68 396.266C502.355 394.631 501.917 393.022 501.379 391.52C501.116 390.762 500.807 390.029 500.511 389.33L500.143 388.519C499.653 387.438 499.174 386.367 498.672 385.297C498.171 384.228 497.658 383.17 497.122 382.112C496.074 379.997 494.959 377.93 493.81 375.875C492.638 373.843 491.444 371.812 490.195 369.84C488.956 367.857 487.651 365.921 486.323 364.009C484.985 362.108 483.612 360.22 482.196 358.402C476.553 351.06 470.255 344.366 463.521 338.326C460.16 335.3 456.678 332.45 453.088 329.785C449.498 327.12 445.843 324.572 442.057 322.233C440.17 321.058 438.261 319.929 436.319 318.836C434.377 317.742 432.425 316.683 430.418 315.706C428.41 314.706 426.392 313.74 424.296 312.834C423.243 312.376 422.189 311.94 421.091 311.506C420.536 311.295 419.992 311.072 419.402 310.85L417.322 310.092L404.32 347.558L404.354 347.545Z" fill="#5C4DA0"/>
<path d="M489.566 419.089C489.777 418.534 489.563 417.889 489.04 417.597C480.991 413.003 470.757 410.522 470.331 410.41C469.675 410.259 469.025 410.645 468.874 411.3C468.723 411.956 469.108 412.607 469.764 412.758C469.868 412.789 480.091 415.282 487.848 419.691C488.429 420.015 489.166 419.821 489.502 419.228C489.546 419.181 489.555 419.123 489.577 419.077L489.566 419.089Z" fill="#4A429A"/>
<path d="M483.289 409.379C483.374 409.17 483.39 408.941 483.348 408.703C483.213 408.044 482.583 407.607 481.924 407.742C481.572 407.81 473.066 409.456 470.36 410.592C469.739 410.851 469.453 411.557 469.712 412.177C469.971 412.797 470.677 413.084 471.297 412.825C473.779 411.788 482.296 410.129 482.387 410.126C482.818 410.044 483.141 409.749 483.289 409.379Z" fill="#4A429A"/>
<path d="M432.132 464.596C432.238 464.341 432.218 464.056 432.061 463.798C426.548 454.384 419.476 435.285 419.413 435.093C419.238 434.618 418.717 434.372 418.219 434.547C417.745 434.722 417.498 435.244 417.673 435.718C417.736 435.91 424.869 455.156 430.467 464.716C430.721 465.154 431.286 465.308 431.734 465.042C431.925 464.933 432.057 464.769 432.12 464.585L432.132 464.596Z" fill="#4A429A"/>
<path d="M418.698 687.602C418.956 688.732 419.263 689.846 419.618 690.928C421.992 698.212 426.352 704.025 432.279 706.432C454.726 715.54 475.833 712.391 518.79 711.389C561.73 710.388 593.624 699.019 589.652 663.653C589.329 660.859 588.796 658.259 588.069 655.82C587.116 652.623 585.824 649.732 584.29 647.116C582.498 644.031 580.366 641.318 578.041 638.961C565.993 626.72 547.842 622.715 531.58 628.286C515.527 633.793 487.154 636.457 457.617 637.039C425.884 637.685 414.014 667.335 418.698 687.569V687.602Z" fill="#FBB416"/>
<path d="M418.698 687.602C418.956 688.732 419.263 689.846 419.618 690.928C427.224 697.566 441.565 701.764 462.349 703.412C468.873 703.945 476.059 704.187 483.778 704.187C501.655 704.187 522.488 702.798 545.242 700.069C564.492 697.759 577.508 690.977 583.951 679.915C588.747 671.679 588.99 662.684 588.069 655.836C587.116 652.639 585.824 649.748 584.29 647.132C585.954 652.251 589.62 666.785 582.465 679.075C576.313 689.653 563.716 696.145 545.032 698.389C477.529 706.496 431.584 702.556 418.698 687.602Z" fill="#F8A81B"/>
<path d="M547.034 643.854C560.228 644.92 569.982 656.951 567.818 670.015C567.77 670.274 567.738 670.516 567.673 670.774C564.831 685.002 545.694 684.582 492.564 685.082C450.947 685.47 429.55 670.581 440.628 652.187C449.429 637.556 518.935 641.593 547.034 643.854Z" fill="#F8A81B"/>
<path d="M446.668 654.625C466.031 678.736 545 680.092 555.367 662.038C560.422 653.253 559.017 641.98 556.272 632.743C555.981 631.774 555.674 630.821 555.367 629.901C552.525 621.584 548.956 615.512 548.956 615.512C548.956 615.512 549.279 624.103 520.146 621.019C516.819 620.664 513.024 620.518 508.971 620.567C508.212 620.567 507.453 620.583 506.678 620.615C475.268 621.552 429.953 633.809 446.684 654.641L446.668 654.625Z" fill="white"/>
<path d="M510.118 640.252C514.672 645.339 522.601 647.261 533.017 645.792C533.259 645.759 533.485 645.727 533.711 645.695C546.841 643.676 553.236 637.426 556.255 632.743C555.965 631.774 555.658 630.821 555.351 629.901C553.123 634.213 547.244 641.561 532.694 643.595C523.053 644.952 515.802 643.272 511.765 638.767C508.131 634.697 507.162 628.415 508.939 620.551C508.18 620.551 507.421 620.567 506.645 620.599C504.853 628.964 506.048 635.731 510.101 640.252H510.118Z" fill="#FBAB47"/>
<path d="M457.617 637.071C457.617 637.071 439.078 635.698 436.881 626.348C434.685 616.998 477.222 625.202 481.905 605.92C486.604 586.654 467.791 571.28 461.686 576.916C454.452 583.601 470.294 586.444 471.15 596.359C471.86 604.595 466.757 612.185 450.915 613.316C435.073 614.446 427.999 616.901 428.064 624.265C428.145 632.275 440.967 640.543 448.767 641.06C456.567 641.577 457.617 637.071 457.617 637.071Z" fill="white"/>
<path d="M538.96 608.406C538.96 608.406 544.467 601.252 553.413 596.489C554.721 595.794 556.272 596.844 556.11 598.313L554.414 614.721C554.414 614.721 541.56 615.819 538.944 608.423L538.96 608.406Z" fill="white"/>
<path d="M551.282 612.734C552.008 609.02 552.186 605.112 553.042 600.72C553.042 600.72 543.369 606.485 542.803 609.65C542.803 609.65 548.132 613.687 551.282 612.734Z" fill="#5A4C54"/>
<path d="M522.181 609.069C522.181 609.069 514.623 604.515 504.724 603.271C503.109 603.061 501.914 604.773 502.64 606.242L509.407 619.743C509.407 619.743 522.439 616.917 522.165 609.069H522.181Z" fill="white"/>
<path d="M512.282 617.579C510.247 614.382 508.664 610.797 506.274 607.034C506.274 607.034 517.368 608.891 519.064 611.636C519.064 611.636 515.56 617.337 512.282 617.595V617.579Z" fill="#5A4C54"/>
<path d="M546.146 608.697C546.146 608.697 557.596 610.441 556.74 623.861C555.884 637.281 542.819 638.702 542.819 638.702C542.819 638.702 540.494 643.014 532.419 644.758C527.252 645.872 519.565 645.517 517.611 641.722C517.611 641.722 506.403 637.62 506.532 627.624C506.678 616.546 520.017 602.948 546.146 608.697Z" fill="white"/>
<path d="M557.773 640.414C557.773 640.414 553.106 659.454 549.182 663.394C545.274 667.318 541.027 669.482 535.568 670.144C526.767 671.21 528.382 677.089 531.014 679.107C534.051 681.449 539.444 680.108 547.551 680.108C554.544 680.108 561.133 678.72 563.506 674.117C565.864 669.515 565.719 655.917 563.2 648.262C561.649 643.547 559.469 641.076 557.79 640.43L557.773 640.414Z" fill="white"/>
<path d="M498.619 641.674C498.619 641.674 503.286 660.713 507.211 664.654C511.119 668.578 515.398 670.532 520.824 671.404C527.462 672.454 526.848 678.72 525.378 680.367C522.811 683.225 516.949 681.368 508.842 681.368C501.849 681.368 493.581 678.574 491.207 673.972C488.849 669.369 490.674 657.177 493.193 649.522C494.744 644.807 496.924 642.336 498.603 641.69L498.619 641.674Z" fill="white"/>
<path d="M459.522 637.879C459.522 637.879 447.201 634.923 443.228 644.209C436.978 658.808 441.968 667.157 458.618 669.482C475.268 671.808 494.178 674.957 479.886 663.104C465.578 651.266 459.522 637.879 459.522 637.879Z" fill="white"/>
<path d="M525.831 630.369C525.831 630.369 530.805 629.836 532.129 630.45C534.357 631.467 530.772 635.618 528.495 635.973C526.218 636.328 524.006 633.664 524.038 631.92C524.07 630.192 525.831 630.369 525.831 630.369Z" fill="#5A4C54"/>
<path d="M523.279 626.542C523.521 626.397 523.78 626.703 523.602 626.913C522.617 628.092 520.792 629.643 518.321 629.126C516.287 628.69 515.511 627.269 515.237 626.025C515.172 625.751 515.56 625.589 515.689 625.848C516.222 626.768 517.239 627.705 519.226 627.834C520.728 627.931 522.262 627.188 523.279 626.558V626.542Z" fill="#5A4C54"/>
<path d="M542.545 625.525C542.755 625.331 543.062 625.589 542.932 625.831C542.173 627.172 540.672 629.029 538.152 628.98C536.069 628.932 535.052 627.672 534.551 626.493C534.438 626.235 534.777 626.009 534.971 626.235C535.649 627.043 536.828 627.785 538.814 627.543C540.3 627.365 541.689 626.348 542.561 625.541L542.545 625.525Z" fill="#5A4C54"/>
</svg>
