<svg width="610" height="728" viewBox="0 0 610 728" fill="none" xmlns="http://www.w3.org/2000/svg">
<path d="M566.967 624.814H499.126C494.64 624.814 491 628.454 491 632.94V676.672C491 681.157 494.64 684.798 499.126 684.798H519.325L525.705 695.84L533.051 708.572L540.397 695.84L546.777 684.798H566.976C571.462 684.798 575.102 681.157 575.102 676.672V632.94C575.102 628.454 571.462 624.814 566.976 624.814H566.967Z" fill="#FCB32B"/>
<path d="M527.627 674.331C533.506 675.056 539.468 675.093 545.356 674.433C546.777 674.276 548.235 674.062 549.442 673.31C550.65 672.558 551.541 671.248 551.235 669.855C552.303 669.846 553.185 669.038 553.937 668.286C554.244 667.979 554.569 667.663 554.754 667.264C554.977 666.809 555.014 666.289 554.987 665.778C554.903 664.181 554.16 662.704 552.767 661.915C554.039 661.534 555.098 660.494 555.479 659.222C555.86 657.949 555.562 656.491 554.717 655.479C554.151 654.801 553.473 654.476 552.656 654.142C553.231 653.622 554.039 653.371 554.494 652.739C555.126 651.866 554.782 650.557 553.984 649.823C553.185 649.099 552.07 648.839 551.003 648.737C549.043 648.56 547.074 648.82 545.115 648.895C543.155 648.969 541.028 648.607 539.282 647.697C538.902 645.105 539.524 642.403 538.827 639.877C537.973 636.775 535.011 634.379 531.807 634.193C531.194 634.156 530.506 634.231 530.107 634.704C529.819 635.057 529.763 635.54 529.763 635.986C529.754 638.075 530.544 640.081 531.017 642.115C531.5 644.149 531.621 646.461 530.432 648.179C529.968 648.848 529.327 649.396 528.946 650.12C528.426 651.114 528.473 652.312 528.194 653.408C527.925 654.504 527.07 655.646 525.947 655.535L527.609 674.331H527.627Z" fill="white"/>
<path d="M526.68 650.093H519.65C519.106 650.093 518.666 650.533 518.666 651.077V675.548C518.666 676.092 519.106 676.532 519.65 676.532H526.68C527.224 676.532 527.665 676.092 527.665 675.548V651.077C527.665 650.533 527.224 650.093 526.68 650.093Z" fill="white"/>
<path d="M524.033 653.38C524.033 653.984 523.541 654.476 522.938 654.476C522.334 654.476 521.842 653.984 521.842 653.38C521.842 652.776 522.334 652.284 522.938 652.284C523.541 652.284 524.033 652.776 524.033 653.38Z" fill="white"/>
<path d="M205.357 409.261C209.522 409.774 213.747 409.8 217.919 409.333C218.926 409.221 219.959 409.07 220.815 408.537C221.67 408.004 222.302 407.076 222.085 406.089C222.841 406.082 223.46 405.51 224 404.977C224.217 404.76 224.447 404.536 224.579 404.253C224.737 403.93 224.763 403.562 224.743 403.2C224.684 402.068 224.157 401.022 223.17 400.462C224.072 400.193 224.822 399.456 225.092 398.554C225.362 397.653 225.151 396.619 224.552 395.902C224.151 395.422 223.67 395.185 223.091 394.955C223.499 394.586 224.072 394.408 224.394 393.961C224.842 393.342 224.598 392.414 224.032 391.895C223.466 391.381 222.677 391.197 221.92 391.125C220.532 391 219.136 391.184 217.748 391.237C216.359 391.289 214.853 391.033 213.615 390.388C213.346 388.552 213.787 386.637 213.293 384.847C212.688 382.649 210.588 380.951 208.318 380.82C207.884 380.793 207.397 380.846 207.114 381.181C206.91 381.431 206.87 381.774 206.87 382.09C206.864 383.57 207.423 384.992 207.759 386.433C208.101 387.874 208.186 389.512 207.344 390.73C207.015 391.204 206.561 391.592 206.291 392.105C205.923 392.809 205.956 393.658 205.758 394.435C205.561 395.211 204.962 396.021 204.166 395.942L205.344 409.261H205.357Z" fill="white"/>
<path d="M204.679 392.079H199.698C199.312 392.079 199 392.391 199 392.776V410.116C199 410.501 199.312 410.814 199.698 410.814H204.679C205.064 410.814 205.377 410.501 205.377 410.116V392.776C205.377 392.391 205.064 392.079 204.679 392.079Z" fill="white"/>
<path d="M202.027 395.191C202.456 395.191 202.804 394.844 202.804 394.415C202.804 393.986 202.456 393.638 202.027 393.638C201.598 393.638 201.251 393.986 201.251 394.415C201.251 394.844 201.598 395.191 202.027 395.191Z" fill="white"/>
<g opacity="0.06">
<path d="M311.394 727.528C472.327 727.528 602.788 714.629 602.788 698.718C602.788 682.806 472.327 669.908 311.394 669.908C150.462 669.908 20 682.806 20 698.718C20 714.629 150.462 727.528 311.394 727.528Z" fill="black"/>
</g>
<path d="M148.046 655.922C151.486 659.362 155.216 662.641 159.27 665.741C179.521 681.293 207.523 692.436 244.715 696.166C434.902 715.206 497.755 625.982 513.113 488.715C519.96 427.542 503.94 387.169 484.076 361.218C481.993 358.505 479.878 355.953 477.746 353.547C476.535 352.19 475.307 350.866 474.032 349.574C448.387 323.38 411.357 311.042 374.973 317.034C346.373 321.733 320.389 337.01 299.315 367.548C265.595 416.367 297.49 458.338 201.144 461.148C127.391 463.296 80.656 588.694 148.062 655.939L148.046 655.922Z" fill="#FBB416"/>
<path d="M439.214 359.506C439.214 359.506 461.71 407.63 435.742 495.966C409.775 584.301 375.377 577.341 353.156 577.341C314.333 577.341 235.72 540.779 220.362 511.969C205.004 483.159 233.992 481.448 288.269 477.184C342.562 472.921 383.064 340.45 439.214 359.506Z" fill="#F8A81B"/>
<path d="M390.444 614.403C390.864 614.403 391.3 614.242 391.623 613.903C392.237 613.257 392.22 612.239 391.558 611.609C372.147 593.151 353.608 582.283 341.464 576.404C328.27 570.025 319.759 568.039 319.404 567.958C318.532 567.765 317.66 568.298 317.466 569.17C317.272 570.042 317.805 570.914 318.677 571.107C319.065 571.204 352.865 579.279 389.314 613.951C389.62 614.242 390.024 614.403 390.428 614.403H390.444Z" fill="#F8A81B"/>
<path d="M384.033 592.78C384.55 592.78 385.066 592.537 385.373 592.069C385.874 591.326 385.68 590.325 384.937 589.824C384.178 589.307 366.107 577.325 338.137 574.273C337.249 574.176 336.458 574.822 336.361 575.71C336.264 576.598 336.91 577.389 337.798 577.486C364.977 580.458 382.967 592.376 383.145 592.505C383.419 592.699 383.742 592.78 384.049 592.78H384.033Z" fill="#F8A81B"/>
<path d="M442.686 459.13C443.494 459.13 444.188 458.532 444.285 457.708C446.627 438.992 454.685 424.684 461.016 415.979C467.911 406.516 474.339 401.429 474.403 401.38C475.098 400.831 475.227 399.814 474.678 399.103C474.129 398.393 473.111 398.28 472.401 398.829C472.126 399.039 465.618 404.19 458.464 413.977C451.875 423.004 443.51 437.845 441.055 457.305C440.942 458.193 441.572 459 442.46 459.113C442.525 459.113 442.589 459.113 442.67 459.113L442.686 459.13Z" fill="#F8A81B"/>
<path d="M148.046 655.922C151.486 659.362 155.216 662.64 159.27 665.741C182.67 679.791 211.238 689.044 242.696 692.662C252.45 693.792 262.301 694.341 272.152 694.341C299.315 694.341 326.542 690.11 352.203 681.793C418.963 660.17 467.136 613.902 487.839 551.535C499.192 517.331 504.763 484.08 504.408 452.686C504.134 427.542 500.048 403.528 492.313 381.307C489.729 373.895 486.919 367.209 484.076 361.218C481.993 358.505 479.878 355.953 477.746 353.547C476.535 352.19 475.308 350.866 474.032 349.574C479.103 358.262 484.529 369.292 489.163 382.615C501.098 416.964 509.996 473.971 484.609 550.453C464.262 611.771 416.864 657.263 351.169 678.547C281.373 701.156 200.644 691.983 150.291 655.745C149.596 655.244 148.66 655.341 148.078 655.939L148.046 655.922Z" fill="#F8A81B"/>
<path d="M426.941 303.921C426.941 303.921 453.199 277.081 414.958 258.17C376.701 239.26 331.645 268.15 324.265 289.225C316.869 310.3 426.957 303.921 426.957 303.921H426.941Z" fill="#5C4DA0"/>
<path d="M381.255 285.511C381.481 285.511 381.723 285.43 381.917 285.268C392.35 276.338 409.839 277.162 410.017 277.162H410.065C410.598 277.162 411.05 276.742 411.066 276.209C411.099 275.644 410.663 275.175 410.114 275.143C409.371 275.095 391.639 274.271 380.593 283.734C380.173 284.09 380.125 284.736 380.48 285.155C380.674 285.382 380.964 285.511 381.255 285.511Z" fill="#4A429A"/>
<path d="M406.9 286.787C407.255 286.787 407.611 286.593 407.788 286.254C408.047 285.753 407.869 285.155 407.368 284.881C406.852 284.606 394.756 278.244 386.181 280.246C385.632 280.375 385.292 280.908 385.422 281.457C385.551 282.006 386.084 282.346 386.633 282.216C394.481 280.391 406.302 286.609 406.415 286.673C406.561 286.754 406.722 286.787 406.884 286.787H406.9Z" fill="#4A429A"/>
<path d="M142.281 639.79L128.813 664.611C128.813 664.611 112.26 668.503 92.5579 670.021C62.6336 672.314 53.7677 667.598 51.6522 674.284C50.005 679.5 72.7591 691.273 83.2883 693.13C93.8175 694.987 116.814 704.418 131.752 706.082C146.673 707.729 153.262 688.883 156.654 682.181C160.029 675.463 170.671 652.741 170.671 652.741L142.297 639.79H142.281Z" fill="#F79A86"/>
<path d="M63.3926 680.841C63.328 682.714 63.6671 684.49 64.6522 685.928C64.8137 686.154 64.9752 686.364 65.169 686.573C70.4659 692.419 91.6858 695.262 91.6858 695.262C89.9902 693.631 89.1827 691.337 88.9405 688.77C88.2784 682.019 91.492 673.364 92.8808 669.988C93.2684 669.068 93.5107 668.551 93.5107 668.551C89.8448 667.695 86.3566 667.211 83.2075 666.985C80.1069 666.759 77.3293 666.759 75.0361 666.855C70.7082 667.049 68.0597 667.582 68.0597 667.582C68.0597 667.582 67.3168 668.777 66.4286 670.618C65.1367 673.267 63.5379 677.239 63.4087 680.841H63.3926Z" fill="#5C4DA0"/>
<path d="M72.4199 676.739L79.7678 677.498C79.7678 677.498 80.7367 673.913 81.8349 670.618C82.287 669.278 82.7715 667.97 83.2076 667.001C80.1069 666.775 77.3293 666.775 75.0361 666.872C74.6001 667.841 74.0833 669.213 73.6311 670.731C73.0498 672.653 72.5492 674.817 72.4361 676.739H72.4199Z" fill="#4A429A"/>
<path d="M54.2522 677.95C54.2522 677.95 122.789 699.654 132.01 701.253C141.215 702.868 146.237 701.059 146.237 701.059C146.237 701.059 145.947 704.822 145.172 708.359C144.267 712.525 139.939 714.98 135.87 713.72C117.541 708.052 56.933 689.125 52.7988 685.766C47.9218 681.809 48.9876 677.595 54.2522 677.95Z" fill="#5C4DA0"/>
<path d="M205.44 634.089L206.328 656.391C206.328 656.391 194.087 668.212 177.938 679.581C153.391 696.86 143.363 697.345 144.962 704.16C146.205 709.473 171.801 707.971 181.782 704.176C191.778 700.397 216.373 696.731 230.051 690.53C243.73 684.313 239.741 664.756 239.224 657.263C238.691 649.77 237.577 632.878 237.577 632.878L205.44 634.089Z" fill="#F79A86"/>
<path d="M158.398 703.788C159.302 705.436 160.497 706.792 162.096 707.519C162.338 707.632 162.597 707.729 162.871 707.81C170.413 710.135 190.098 701.721 190.098 701.721C187.821 701.188 185.948 699.638 184.414 697.555C180.393 692.097 178.729 683.021 178.213 679.403C178.067 678.418 178.019 677.837 178.019 677.837C174.418 678.983 171.188 680.356 168.362 681.761C165.584 683.15 163.194 684.571 161.272 685.831C157.655 688.205 155.652 690.013 155.652 690.013C155.652 690.013 155.62 691.418 155.798 693.453C156.04 696.392 156.702 700.623 158.43 703.788H158.398Z" fill="#5C4DA0"/>
<path d="M164.05 695.649L170.752 692.549C170.752 692.549 169.751 688.964 169.008 685.572C168.701 684.183 168.459 682.827 168.329 681.761C165.552 683.15 163.162 684.571 161.24 685.831C161.369 686.88 161.611 688.334 161.999 689.868C162.483 691.822 163.162 693.937 164.05 695.649Z" fill="#4A429A"/>
<path d="M149.047 705.985C149.047 705.985 219.054 689.577 227.79 686.251C236.527 682.924 239.918 678.806 239.918 678.806C239.918 678.806 241.598 682.197 242.744 685.621C244.085 689.658 241.63 693.986 237.496 694.987C218.844 699.493 157.073 714.221 151.809 713.446C145.591 712.541 144.348 708.375 149.064 705.969L149.047 705.985Z" fill="#5C4DA0"/>
<path d="M181.62 456.933C199.384 443.271 263.189 448.891 313.171 455.964C314.592 478.605 307.615 459.808 311.83 482.078C249.43 485.275 231.892 490.2 231.892 490.2C231.892 490.2 241.226 540.989 240.774 562.225C240.322 583.462 247.848 644.909 247.848 644.909L202.856 653.387C202.856 653.387 156.185 476.49 181.62 456.933Z" fill="white"/>
<path d="M200.579 643.504C200.773 643.569 200.983 643.585 201.193 643.536L245.619 634.46C246.281 634.331 246.701 633.685 246.572 633.023C246.443 632.361 245.797 631.941 245.135 632.07L200.708 641.146C200.046 641.275 199.626 641.921 199.756 642.583C199.852 643.019 200.159 643.359 200.563 643.488L200.579 643.504Z" fill="#D8D8D8"/>
<path d="M237.076 634.864C237.27 634.929 237.496 634.945 237.706 634.896C238.368 634.751 238.772 634.105 238.643 633.459C238.594 633.233 233.846 610.786 233.572 574.499C233.297 537.953 222.09 483.515 221.977 482.982C221.848 482.32 221.202 481.9 220.539 482.045C219.877 482.174 219.457 482.82 219.603 483.483C219.716 484.032 230.875 538.228 231.133 574.531C231.408 611.076 236.204 633.75 236.252 633.976C236.349 634.412 236.656 634.735 237.06 634.864H237.076Z" fill="#D8D8D8"/>
<path d="M235.347 252.145C237.646 251.378 239.118 247.469 241.239 245.07C244.023 241.915 247.219 236.34 248.195 232.7C249.663 227.265 253.1 210.997 250.59 207.038C248.067 203.087 244.026 216.888 243.131 219.699C242.236 222.509 240.595 224.091 240.595 224.091C240.595 224.091 247.449 191.715 245.097 188.803C242.744 185.891 237.012 203.932 235.615 208.393C235.615 208.393 239.415 183.71 237.35 182.329C233.197 179.561 228.179 206.849 228.179 206.849C228.179 206.849 230.323 185.92 226.879 185.671C223.216 185.399 220.988 207.831 220.988 207.831C220.988 207.831 220.396 193.982 217.531 192.411C214.657 190.825 213.659 220.006 214.038 224.505C214.417 229.004 214.463 241.229 215.957 246.949C216.971 250.839 228.097 254.541 235.353 252.123L235.347 252.145Z" fill="#F79A86"/>
<path d="M217.725 215.291C217.632 214.841 217.873 214.385 218.319 214.221C228.744 210.476 238.324 215.798 238.722 216.035C239.164 216.283 239.329 216.859 239.08 217.301C238.832 217.743 238.256 217.908 237.814 217.659C237.723 217.599 228.557 212.542 218.946 215.984C218.464 216.151 217.928 215.901 217.761 215.419C217.745 215.391 217.735 215.341 217.733 215.305L217.725 215.291Z" fill="#F3796B"/>
<path d="M223.064 238.072C222.984 237.708 223.121 237.331 223.44 237.109C232.562 230.817 230.958 222.289 230.938 222.189C230.835 221.688 231.167 221.198 231.668 221.096C232.168 220.993 232.65 221.312 232.767 221.804C232.857 222.218 234.631 231.655 224.523 238.628C224.099 238.929 223.528 238.811 223.228 238.388C223.163 238.276 223.107 238.178 223.078 238.064L223.064 238.072Z" fill="#F3796B"/>
<path d="M321.61 291.42L321.68 291.379L321.672 291.365L321.001 291.753L320.052 292.338C319.381 292.725 318.695 293.121 317.996 293.525C316.589 294.318 315.133 295.122 313.644 295.87C310.66 297.387 307.616 298.865 304.497 300.181C302.937 300.839 301.378 301.497 299.794 302.113C298.211 302.729 296.625 303.309 295.045 303.867C293.451 304.433 291.839 304.935 290.226 305.437C288.614 305.939 287 306.404 285.383 306.834C272.417 310.311 259.133 311.752 246.061 310.815C245.247 310.763 244.426 310.696 243.61 310.608C242.788 310.541 241.987 310.445 241.163 310.342L240.544 310.271C240.798 310.292 241.063 310.363 241.356 310.417C241.913 310.543 242.531 310.709 243.123 310.926C243.723 311.158 244.303 311.42 244.835 311.728C245.359 312.022 245.827 312.349 246.229 312.657C247.033 313.275 247.539 313.859 247.821 314.219C248.111 314.592 248.202 314.782 248.196 314.804C248.184 314.848 247.875 314.28 247.591 313.4C247.292 312.528 246.991 311.36 246.71 310.067C246.444 308.766 246.191 307.327 245.998 305.798C245.584 302.755 245.355 299.419 245.185 295.992C244.902 289.107 245.016 281.843 245.322 274.525C245.464 270.863 245.676 267.16 245.918 263.477C246.024 261.626 246.152 259.781 246.302 257.941L246.705 252.599L210.961 245.563L210.568 247.208L210.218 248.733L209.546 251.769C209.125 253.784 208.739 255.797 208.361 257.824C207.62 261.869 206.973 265.916 206.403 270.031C205.289 278.245 204.509 286.583 204.37 295.353C204.293 299.742 204.412 304.242 204.805 308.994C205.02 311.368 205.32 313.825 205.734 316.383C206.17 318.947 206.729 321.627 207.597 324.519C208.465 327.412 209.601 330.541 211.505 334.066C212.456 335.811 213.646 337.678 215.165 339.599C216.676 341.505 218.606 343.523 220.988 345.356C222.172 346.276 223.498 347.151 224.883 347.936C226.283 348.713 227.772 349.42 229.297 349.994C230.814 350.554 232.391 351.024 233.928 351.329C234.698 351.5 235.464 351.599 236.201 351.714L237.061 351.814C238.206 351.955 239.364 352.088 240.514 352.207C241.665 352.326 242.821 352.423 243.977 352.52C246.281 352.7 248.589 352.822 250.909 352.9C253.213 352.95 255.523 352.978 257.82 352.919C260.125 352.875 262.412 352.767 264.697 352.622C266.988 352.456 269.262 352.262 271.525 351.981C280.6 350.937 289.471 349.023 298.047 346.403C302.323 345.09 306.531 343.593 310.642 341.928C314.745 340.249 318.797 338.45 322.734 336.42C324.706 335.411 326.655 334.361 328.587 333.283C330.519 332.204 332.419 331.07 334.301 329.872C336.19 328.688 338.056 327.462 339.909 326.149C340.831 325.486 341.768 324.815 342.702 324.108C343.173 323.761 343.65 323.393 344.141 323.016L345.86 321.632L321.638 291.403L321.61 291.42Z" fill="#5C4DA0"/>
<path d="M225.62 334.42C225.967 334.891 226.635 335.047 227.174 334.754C235.323 330.329 242.824 322.94 243.131 322.632C243.609 322.169 243.606 321.388 243.143 320.91C242.68 320.431 241.899 320.434 241.42 320.897C241.353 320.974 233.844 328.348 225.997 332.618C225.415 332.935 225.192 333.679 225.509 334.26C225.542 334.316 225.566 334.358 225.598 334.414L225.62 334.42Z" fill="#4A429A"/>
<path d="M237.175 334.182C237.316 334.362 237.491 334.504 237.706 334.585C238.328 334.822 239.025 334.513 239.277 333.883C239.416 333.541 242.49 325.463 242.938 322.557C243.043 321.9 242.594 321.283 241.928 321.163C241.271 321.058 240.654 321.508 240.535 322.173C240.108 324.825 237.035 332.939 236.99 333.021C236.833 333.429 236.909 333.851 237.153 334.177L237.175 334.182Z" fill="#4A429A"/>
<path d="M212.343 253.641C212.5 253.849 212.755 254 213.038 254.005C223.785 254.177 243.428 258.034 243.618 258.073C244.102 258.167 244.589 257.849 244.697 257.357C244.805 256.866 244.486 256.379 244.003 256.285C243.813 256.246 224.009 252.37 213.102 252.178C212.595 252.172 212.178 252.581 212.164 253.073C212.155 253.284 212.218 253.49 212.343 253.641Z" fill="#4A429A"/>
<path d="M303.966 301.305C300.784 310.962 306.065 334.443 300.946 375.736C300.574 378.772 300.138 381.905 299.638 385.151C299.169 388.187 298.653 391.336 298.071 394.582C297.522 397.602 296.925 400.718 296.279 403.9C295.697 406.694 295.084 409.568 294.405 412.491C293.711 415.511 292.984 418.579 292.193 421.728C291.967 422.617 291.725 423.586 291.466 424.587C291.402 424.845 291.337 425.087 291.272 425.346C291.208 425.572 291.159 425.798 291.095 426.04C291.046 426.218 291.014 426.395 290.966 426.557L290.869 426.945C290.804 427.171 290.756 427.413 290.691 427.639C290.691 427.687 290.675 427.736 290.659 427.768C290.594 428.043 290.513 428.333 290.433 428.624C290.433 428.672 290.417 428.705 290.4 428.753C290.336 428.995 290.271 429.254 290.207 429.496C289.9 430.659 289.577 431.886 289.254 433.146C289.173 433.453 289.092 433.776 288.995 434.099C288.882 434.518 288.769 434.954 288.656 435.391C288.43 436.246 288.188 437.102 287.962 437.991C287.849 438.427 287.72 438.879 287.607 439.315C287.348 440.268 287.09 441.22 286.815 442.205C286.767 442.383 286.718 442.561 286.67 442.738C286.04 445.064 285.362 447.454 284.684 449.909C284.377 451.007 284.054 452.137 283.747 453.251C283.359 454.608 282.972 455.981 282.584 457.353C282.003 459.372 281.422 461.391 280.824 463.409L280.065 465.977C279.839 466.752 279.597 467.527 279.371 468.302C279.096 469.223 278.822 470.159 278.547 471.08C278.369 471.694 278.176 472.307 277.982 472.921C277.869 473.309 277.756 473.68 277.643 474.068C277.417 474.827 277.174 475.586 276.948 476.345C276.722 477.104 276.48 477.846 276.254 478.589C276.092 479.122 275.931 479.639 275.769 480.156C275.624 480.624 275.479 481.076 275.333 481.528C275.285 481.658 275.253 481.771 275.22 481.9C275.14 482.158 275.059 482.433 274.962 482.691C274.784 483.224 274.623 483.773 274.445 484.29C274.251 484.904 274.041 485.533 273.848 486.147C272.249 491.056 270.682 495.627 269.213 499.583C280.13 512.131 298.669 523.096 320.47 529.669L332.566 521.804L342.691 534.643C363.992 537.76 386.811 536.532 407.837 528.878C414.781 514.683 426.23 462.602 429.476 447.034C430.122 443.933 430.704 440.817 431.237 437.7C433.82 422.697 435.193 407.469 436.114 391.465C436.162 390.593 436.211 389.721 436.259 388.849C436.259 388.752 436.259 388.639 436.275 388.542C437.26 375.057 454.879 335.331 453.103 321.039C449.582 292.713 431.527 300.174 415.249 295.798C409.904 294.36 405.414 292.552 401.732 290.695C400.198 289.919 398.809 289.144 397.55 288.385C397.017 288.078 396.532 287.772 396.064 287.449C391.009 284.17 388.248 281.409 388.248 281.409L351.315 277.549C347.665 281.845 343.353 284.348 338.815 285.963C338.315 286.141 337.814 286.302 337.297 286.464C336.538 286.706 335.779 286.916 335.02 287.11C321.972 290.501 308.164 288.644 303.982 301.305H303.966Z" fill="#5C4DA0"/>
<path d="M396.661 500.132C397.065 500.132 397.453 499.874 397.614 499.47C417.817 445.225 428.281 351.561 428.378 350.624C428.443 350.075 428.039 349.574 427.49 349.51C426.941 349.445 426.44 349.849 426.376 350.398C426.279 351.334 415.847 444.757 395.725 498.76C395.531 499.276 395.789 499.858 396.322 500.068C396.435 500.116 396.565 500.132 396.678 500.132H396.661Z" fill="#4A429A"/>
<path d="M360.94 300.336C360.552 301.515 361.957 303.033 364.089 303.727C366.22 304.421 368.255 304.05 368.643 302.871C369.03 301.692 367.625 300.174 365.494 299.48C363.362 298.785 361.327 299.157 360.94 300.336Z" fill="#4A429A"/>
<path d="M344.435 296.137C344.048 297.316 345.453 298.834 347.584 299.528C349.716 300.223 351.751 299.851 352.138 298.672C352.526 297.493 351.121 295.975 348.989 295.281C346.858 294.587 344.823 294.958 344.435 296.137Z" fill="#4A429A"/>
<path d="M339.768 304.954C340.22 304.954 340.624 304.647 340.753 304.195C340.899 303.662 340.559 303.097 340.027 302.968C325.783 299.318 324.895 290.743 324.863 290.388C324.814 289.839 324.33 289.419 323.781 289.467C323.232 289.516 322.812 290 322.86 290.549C322.892 290.969 323.813 300.901 339.542 304.938C339.623 304.954 339.704 304.97 339.801 304.97L339.768 304.954Z" fill="#4A429A"/>
<path d="M317.886 394.259C336.878 394.259 353.333 389.382 364.347 384.957C378.074 379.45 386.601 373.41 386.681 373.346C387.133 373.023 387.247 372.393 386.924 371.941C386.601 371.489 385.971 371.376 385.519 371.698C385.438 371.763 377.073 377.69 363.556 383.1C351.105 388.09 331.581 393.677 309.359 391.885C308.794 391.836 308.31 392.256 308.277 392.805C308.229 393.354 308.649 393.855 309.198 393.887C312.153 394.13 315.06 394.226 317.902 394.226L317.886 394.259Z" fill="#4A429A"/>
<path d="M375.377 429.997C375.377 429.997 329.998 418.434 301.721 418.095L293.081 455.512C293.081 455.512 337.895 463.054 366.253 467.996L375.377 429.997Z" fill="#4A429A"/>
<path d="M400.828 313.723C409.565 313.723 416.25 311.285 420.804 308.765C428.055 304.76 431.592 299.835 431.737 299.625C432.06 299.173 431.947 298.543 431.495 298.22C431.043 297.897 430.413 298.01 430.09 298.462C430.09 298.462 426.634 303.275 419.755 307.038C413.408 310.51 402.733 313.836 387.876 309.944C387.343 309.799 386.778 310.122 386.649 310.671C386.504 311.204 386.827 311.769 387.376 311.898C392.301 313.19 396.807 313.707 400.844 313.707L400.828 313.723Z" fill="#4A429A"/>
<path d="M284.635 449.909C285.313 447.454 285.992 445.064 286.622 442.738C285.976 445.064 285.313 447.454 284.635 449.909Z" fill="#28100C"/>
<path d="M287.93 437.991C288.172 437.102 288.398 436.246 288.624 435.391C288.398 436.246 288.156 437.102 287.93 437.991Z" fill="#28100C"/>
<path d="M297.91 389.608C297.91 389.608 298.055 389.656 298.136 389.656C298.798 389.737 299.412 389.269 299.492 388.607C301.705 371.715 304.143 351.641 304.369 345.973C304.402 345.311 303.885 344.746 303.207 344.713C302.544 344.681 301.979 345.198 301.947 345.876C301.721 351.464 299.282 371.44 297.086 388.3C297.005 388.881 297.361 389.43 297.91 389.608Z" fill="#4A429A"/>
<path d="M342.078 201.019C342.078 201.019 330.369 210.224 338.056 224.257C338.056 224.257 342.271 207.866 342.078 201.019Z" fill="#28100C"/>
<path d="M388.958 264.339C388.958 264.339 396.548 271.719 398.115 266.277C399.681 260.835 397.033 258.122 397.033 258.122C397.033 258.122 405.237 266.003 405.366 260.06C405.495 254.133 401.216 248.82 401.216 248.82C401.216 248.82 408.822 243.249 406.335 234.334C403.848 225.42 403.541 218.896 406.028 211.596C408.515 204.297 407.384 196.755 403.783 193.493C398.519 188.713 390.864 189.456 390.864 189.456C390.864 189.456 386.794 176.117 371.55 176.472C356.305 176.827 347.423 164.925 339.736 168.026C332.049 171.127 323.232 196.529 343.919 204.055C343.919 204.055 384.905 231.54 388.958 264.339Z" fill="#28100C"/>
<path d="M350.249 271.59L349.248 281.231C350.281 282.265 351.331 283.169 352.413 283.977C368.094 295.765 387.44 285.22 387.44 285.22L390.929 251.824L355.11 269.249L350.265 271.606L350.249 271.59Z" fill="#F79A86"/>
<path d="M350.346 270.75L349.248 281.231C350.281 282.265 351.331 283.169 352.413 283.977C367.238 279.826 379.172 265.97 379.172 265.97L355.11 269.249L350.346 270.767V270.75Z" fill="#28100C"/>
<path d="M342.675 227.632C342.675 227.632 337.879 220.591 334.116 226.744C330.353 232.897 331.355 246.22 339.914 244.944L342.691 227.632H342.675Z" fill="#F3796B"/>
<path d="M334.471 249.692C334.471 249.692 332.356 269.604 353.091 271.719C373.681 273.835 389.41 259.123 390.218 258.461H390.25L390.912 254.278L394.352 232.671L396.193 221.124C396.193 221.124 401.006 200.486 381.53 194.591C367.302 190.28 353.43 191.281 345.776 198.128C345.533 198.354 345.291 198.58 345.065 198.806C342.627 201.245 340.915 204.345 340.14 208.14L337.314 228.924L336.619 234.027L334.487 249.676L334.471 249.692Z" fill="#F79A86"/>
<path d="M394.336 232.687C394.336 232.687 389.669 234.14 387.618 239.809C384.533 239.486 382.386 236.611 382.951 233.559C383.274 231.783 383.694 229.667 384.178 227.277C385.664 220.123 387.941 217.862 383.791 213.373C379.64 208.883 383.548 206.219 379.769 203.053C375.619 199.581 365.381 205.734 357.839 204.168C348.892 202.311 349.651 196.239 341.851 203.199C341.851 203.199 343.919 192.718 354.092 189.892C364.266 187.05 392.85 189.553 397.227 203.167C401.603 216.78 394.336 232.687 394.336 232.687Z" fill="#28100C"/>
<path d="M377.945 217.652C376.572 220.01 373.568 220.834 371.178 219.493C369.789 218.718 368.142 217.927 366.366 217.345C363.863 216.522 362.538 213.777 363.507 211.322C363.507 211.322 373.843 211.451 377.945 217.668V217.652Z" fill="#28100C"/>
<path d="M339.623 213.357C340.43 215.795 343.046 217.135 345.501 216.376C346.938 215.924 348.618 215.521 350.346 215.327C352.817 215.052 354.561 212.775 354.157 210.321C354.157 210.321 344.597 208.431 339.623 213.357Z" fill="#28100C"/>
<path d="M364.04 234.35C363.895 235.804 366.753 237.29 370.435 237.677C374.117 238.065 377.234 237.193 377.379 235.755C377.525 234.302 374.666 232.816 370.984 232.429C367.302 232.041 364.186 232.913 364.04 234.35Z" fill="#F3796B"/>
<path d="M336.587 234.06C337.104 234.173 337.637 234.254 338.186 234.302C341.868 234.69 344.984 233.817 345.13 232.364C345.275 230.911 342.417 229.425 338.735 229.037C338.234 228.989 337.75 228.957 337.281 228.957L336.587 234.06Z" fill="#F3796B"/>
<path d="M363.653 226.244C363.443 228.23 364.186 229.942 365.3 230.055C366.414 230.168 367.48 228.65 367.69 226.663C367.9 224.677 367.157 222.965 366.043 222.852C364.928 222.739 363.863 224.257 363.653 226.244Z" fill="#28100C"/>
<path d="M343.644 224.144C343.434 226.131 344.177 227.842 345.291 227.955C346.405 228.068 347.471 226.55 347.681 224.564C347.891 222.578 347.148 220.866 346.034 220.753C344.92 220.64 343.854 222.158 343.644 224.144Z" fill="#28100C"/>
<path d="M350.152 244.734C357.435 245.493 364.04 239.873 364.137 239.793C364.476 239.502 364.525 238.969 364.218 238.63C363.927 238.291 363.394 238.242 363.055 238.549C362.619 238.921 352.381 247.609 344.048 240.245C343.709 239.938 343.192 239.97 342.885 240.309C342.578 240.649 342.61 241.165 342.95 241.472C345.275 243.539 347.746 244.476 350.152 244.734Z" fill="#28100C"/>
<path d="M384.566 249.708C384.63 249.934 386.617 256.297 390.202 258.461H390.218L390.88 254.278C390.88 254.278 387.666 253.374 384.55 249.692L384.566 249.708Z" fill="#28100C"/>
<path d="M389.653 236.256C389.653 236.256 398.729 226.389 403.686 235.4C407.772 242.829 396.791 259.931 387.925 252.744L389.653 236.24V236.256Z" fill="#F79A86"/>
<path d="M389.362 249.66C389.782 249.708 390.17 249.434 390.25 249.014C391.978 241.004 399.052 238.904 399.358 238.808C399.794 238.678 400.053 238.226 399.924 237.79C399.794 237.354 399.342 237.096 398.906 237.225C398.567 237.322 390.589 239.663 388.635 248.658C388.538 249.111 388.829 249.547 389.265 249.644C389.297 249.644 389.33 249.644 389.362 249.644V249.66Z" fill="#28100C"/>
<path d="M397.517 245.493C397.76 245.526 398.002 245.445 398.179 245.251C398.502 244.928 398.502 244.411 398.179 244.088C397.873 243.781 395.176 241.165 392.657 241.537C392.204 241.601 391.897 242.021 391.962 242.473C392.027 242.926 392.447 243.232 392.899 243.168C394.352 242.958 396.355 244.605 397.017 245.251C397.162 245.396 397.34 245.461 397.517 245.493Z" fill="#28100C"/>
<path d="M354.464 235.416C354.916 235.465 355.32 235.142 355.368 234.69C355.417 234.237 355.094 233.834 354.642 233.785C351.622 233.462 350.378 231.734 349.991 230.991C353.963 224.596 357.92 218.153 357.968 218.072C358.21 217.685 358.081 217.184 357.694 216.942C357.306 216.699 356.806 216.829 356.563 217.216C356.515 217.281 352.413 223.983 348.36 230.491C348.23 230.701 348.198 230.959 348.279 231.201C348.327 231.347 349.619 234.916 354.464 235.416Z" fill="#28100C"/>
<g opacity="0.5">
<path d="M354.076 228.892C353.915 231.67 358.404 234.189 364.137 234.544C369.854 234.899 374.634 232.929 374.796 230.152C374.957 227.374 370.468 224.855 364.735 224.499C359.018 224.16 354.238 226.114 354.076 228.892Z" fill="white"/>
</g>
<g opacity="0.5">
<path d="M327.576 227.778C327.414 230.555 331.904 233.075 337.637 233.43C343.353 233.785 348.133 231.815 348.295 229.037C348.456 226.26 343.967 223.74 338.234 223.385C332.517 223.046 327.737 225 327.576 227.778Z" fill="white"/>
</g>
<path d="M348.246 229.005C348.392 229.005 348.537 228.957 348.65 228.86C350.83 226.954 353.705 228.827 353.818 228.908C354.092 229.086 354.48 229.021 354.658 228.747C354.835 228.472 354.771 228.101 354.496 227.907C353.204 227.035 350.152 225.937 347.859 227.955C347.6 228.181 347.584 228.553 347.794 228.811C347.907 228.957 348.085 229.021 348.246 229.021V229.005Z" fill="#28100C"/>
<path d="M396.694 231.799C396.871 231.799 397.049 231.718 397.178 231.557C397.388 231.298 397.34 230.911 397.065 230.701C387.925 223.611 375.054 228.731 374.521 228.94C374.214 229.07 374.069 229.425 374.182 229.732C374.311 230.039 374.666 230.184 374.973 230.071C375.102 230.022 387.731 225 396.322 231.67C396.435 231.75 396.565 231.799 396.694 231.799Z" fill="#28100C"/>
<path d="M413.731 512.066C413.731 512.066 410.873 595.412 310.28 562.225C256.552 544.494 232.716 530.88 232.716 530.88C232.716 530.88 215.775 577.906 206.667 597.091C197.559 616.276 172.254 663.238 172.254 663.238L128.845 652.547C128.845 652.547 179.392 476.619 210.608 469.174C241.824 461.73 279.274 473.567 345.323 488.553C345.323 488.553 403.008 497.387 413.715 512.066H413.731Z" fill="white"/>
<path d="M171.026 647.444C171.543 647.622 172.141 647.412 172.431 646.927C186.449 624.254 200.369 589.905 211.544 562.306C216.244 550.695 220.313 540.65 223.705 533.157C228.291 522.999 230.164 520.981 230.875 520.674C233.992 519.333 244.23 523.968 257.182 529.814C275.947 538.292 304.289 551.115 337.265 557.962C354.173 561.466 368.837 559.173 380.803 551.131C402.12 536.823 407.384 509.709 407.594 508.562C407.724 507.9 407.288 507.27 406.625 507.157C405.963 507.028 405.334 507.464 405.204 508.126C405.156 508.401 399.891 535.418 379.43 549.145C368.013 556.799 353.996 558.963 337.75 555.604C305.048 548.822 276.835 536.064 258.167 527.618C243.1 520.803 234.008 516.701 229.906 518.461C226.175 520.06 220.265 534.287 209.284 561.402C198.141 588.904 184.269 623.156 170.348 645.652C169.993 646.217 170.17 646.976 170.736 647.315C170.816 647.363 170.897 647.412 170.994 647.428L171.026 647.444Z" fill="#D8D8D8"/>
<path d="M134.093 639.079C134.093 639.079 134.142 639.079 134.158 639.095L178.035 650.69C178.681 650.868 179.343 650.48 179.521 649.834C179.698 649.188 179.311 648.51 178.665 648.349L134.788 636.754C134.142 636.576 133.48 636.963 133.302 637.609C133.141 638.239 133.496 638.869 134.093 639.063V639.079Z" fill="#D8D8D8"/>
<path d="M183.108 462.747L181.548 479.275C181.524 479.533 181.713 479.761 181.971 479.785L315.03 492.34C315.287 492.364 315.515 492.175 315.54 491.918L317.099 475.39C317.123 475.132 316.934 474.904 316.677 474.879L183.618 462.325C183.36 462.301 183.132 462.49 183.108 462.747Z" fill="#28100C"/>
<path d="M167.49 478.412C162.451 477.943 158.349 474.132 157.51 469.142L141.296 372.926C140.311 367.047 145.155 361.831 151.098 362.38L211.092 368.033C215.146 368.42 218.44 371.44 219.167 375.445L239.111 485.162L167.49 478.412Z" fill="#28100C"/>
<path d="M201.79 458.597L201.08 453.429L205.149 453.736L203.922 448.972L209.316 449.392L210.543 454.156L213.87 454.414L212.643 449.65L218.036 450.07L219.264 454.834L223.979 455.189L224.69 460.357L220.62 460.05L221.718 464.426L226.434 464.782L227.144 469.949L223.075 469.643L224.302 474.407L218.908 473.987L217.681 469.223L214.354 468.964L215.582 473.728L210.188 473.308L208.961 468.544L204.245 468.189L203.534 463.022L207.604 463.328L206.506 458.952L201.79 458.597ZM212.998 463.748L216.325 464.007L215.226 459.63L211.9 459.372L212.998 463.748Z" fill="#4A429A"/>
<path d="M148.692 388.768C150.097 395.05 155.798 400.541 161.434 401.041C167.07 401.542 170.493 396.843 169.088 390.561C167.683 384.279 161.983 378.788 156.347 378.287C150.711 377.787 147.287 382.486 148.692 388.768Z" fill="#FBB416"/>
<path d="M160.093 387.638C160.368 388.897 160.998 389.947 161.482 389.995C161.967 390.044 162.144 389.059 161.854 387.799C161.579 386.539 160.949 385.49 160.465 385.441C159.98 385.393 159.803 386.378 160.093 387.638Z" fill="#28100C"/>
<path d="M154.764 387.169C155.039 388.429 155.669 389.479 156.153 389.527C156.637 389.575 156.815 388.59 156.524 387.331C156.25 386.071 155.62 385.021 155.136 384.973C154.651 384.925 154.473 385.91 154.764 387.169Z" fill="#28100C"/>
<path d="M160.045 395.195C164.438 395.583 164.341 390.77 164.341 390.722C164.341 390.464 164.115 390.189 163.872 390.108C163.614 390.028 163.42 390.173 163.436 390.448C163.436 390.625 163.485 394.533 159.835 394.21C156.169 393.887 154.441 389.818 154.377 389.656C154.264 389.382 153.989 389.188 153.763 389.236C153.537 389.269 153.44 389.527 153.553 389.802C153.569 389.85 155.669 394.824 160.061 395.211L160.045 395.195Z" fill="#28100C"/>
<path d="M219.167 375.461L238.949 484.274L245.813 484.92L226.03 376.107C225.303 372.102 222.009 369.066 217.956 368.695L211.092 368.049C215.146 368.436 218.44 371.456 219.167 375.461Z" fill="#28100C"/>
<path d="M238.336 483.547C238.336 483.547 238.449 483.547 238.513 483.531C239.062 483.434 239.434 482.901 239.321 482.352L219.764 373.782C219.667 373.233 219.134 372.861 218.585 372.958C218.036 373.055 217.665 373.588 217.778 374.137L237.334 482.707C237.415 483.192 237.851 483.547 238.336 483.547Z" fill="#5A4C54"/>
<path d="M197.349 425.523C198.157 431.547 194.039 435.972 188.144 435.423C182.25 434.874 176.824 429.528 176.016 423.505C175.209 417.481 179.327 413.056 185.221 413.605C191.116 414.154 196.542 419.5 197.349 425.507V425.523Z" fill="white"/>
<path d="M335.876 425.426C336.296 425.426 336.7 425.152 336.829 424.732C348.553 389.737 365.494 302.564 365.655 301.676C365.768 301.127 365.397 300.594 364.848 300.497C364.299 300.384 363.766 300.755 363.669 301.305C363.507 302.177 346.599 389.22 334.907 424.102C334.73 424.635 335.02 425.2 335.537 425.378C335.65 425.41 335.747 425.426 335.86 425.426H335.876Z" fill="white"/>
<path d="M310.813 422.1C311.313 422.1 311.749 421.728 311.814 421.228C318.952 369.131 348.747 299.011 349.054 298.301C349.28 297.784 349.038 297.186 348.521 296.977C348.004 296.75 347.407 296.993 347.197 297.509C346.89 298.22 316.982 368.582 309.812 420.953C309.731 421.502 310.118 422.019 310.684 422.1C310.732 422.1 310.781 422.1 310.829 422.1H310.813Z" fill="white"/>
<path d="M382.806 557.994C384.953 557.994 387.263 557.252 389.62 555.782C398.212 550.404 408.612 534.094 412.471 509.805C412.552 509.256 412.181 508.74 411.632 508.643C411.083 508.546 410.566 508.933 410.469 509.482C406.706 533.157 396.742 548.935 388.538 554.07C385.745 555.814 383.096 556.379 380.884 555.701C379.107 555.152 377.719 553.941 376.685 551.971C369.531 538.486 381.966 497.871 382.095 497.468C382.256 496.935 381.966 496.369 381.433 496.208C380.9 496.046 380.335 496.337 380.173 496.87C379.64 498.566 367.367 538.712 374.909 552.924C376.201 555.362 378.025 556.945 380.319 557.639C381.126 557.881 381.966 558.011 382.822 558.011L382.806 557.994Z" fill="white"/>
<path d="M438.861 440.512C437.139 439.066 433.3 439.819 430.361 439.311C426.503 438.648 420.5 438.847 417.147 439.837C412.119 441.332 397.524 446.571 395.629 450.488C393.722 454.417 406.653 450.872 409.318 450.211C411.995 449.539 414.044 450.072 414.044 450.072C414.044 450.072 385.024 460.487 383.864 463.766C382.704 467.044 399.817 462.783 404.035 461.699C404.035 461.699 382.596 470.76 382.516 473.082C382.355 477.725 406.459 468.357 406.459 468.357C406.459 468.357 388.82 476.895 390.297 479.753C391.872 482.791 410.748 473.577 410.748 473.577C410.748 473.577 400.051 480.826 400.209 483.883C400.368 486.94 423.984 473.451 427.372 470.941C430.76 468.431 440.43 462.411 444.232 458.427C446.826 455.723 444.319 445.081 438.839 440.513L438.861 440.512Z" fill="#F79A86"/>
<path d="M418.245 472.523C417.934 472.829 417.444 472.855 417.104 472.579C409.033 466.145 408.573 455.945 408.549 455.523C408.535 455.044 408.912 454.644 409.391 454.63C409.87 454.616 410.27 454.993 410.284 455.472C410.284 455.472 410.757 465.329 418.185 471.245C418.548 471.543 418.62 472.078 418.323 472.463C418.301 472.487 418.268 472.522 418.246 472.546L418.245 472.523Z" fill="#F3796B"/>
<path d="M433.718 457.148C433.486 457.395 433.1 457.475 432.764 457.313C423.319 453.158 417.334 458.612 417.266 458.66C416.922 458.979 416.373 458.972 416.043 458.616C415.724 458.271 415.743 457.734 416.076 457.404C416.353 457.133 422.973 451.101 433.471 455.716C433.91 455.909 434.097 456.417 433.904 456.857C433.85 456.962 433.784 457.055 433.718 457.125L433.718 457.148Z" fill="#F3796B"/>
<path d="M423.484 344.511L423.415 344.49L423.462 344.534L423.659 344.631L424.1 344.87L425.075 345.389C425.749 345.758 426.457 346.137 427.165 346.539C428.583 347.342 430.012 348.18 431.444 349.063C434.295 350.842 437.149 352.711 439.903 354.71C441.281 355.72 442.659 356.731 444.014 357.765C445.359 358.81 446.692 359.868 448.004 360.972C449.316 362.053 450.594 363.192 451.861 364.32C453.128 365.448 454.373 366.599 455.585 367.786C465.344 377.21 473.532 388.016 479.583 399.936C479.971 400.679 480.335 401.422 480.701 402.188C481.077 402.943 481.408 403.698 481.761 404.453L482.018 405.028C481.908 404.792 481.821 404.531 481.71 404.249C481.522 403.695 481.332 403.072 481.222 402.436C481.1 401.788 481.024 401.139 481.017 400.511C480.999 399.895 481.027 399.3 481.069 398.784C481.176 397.753 481.405 396.992 481.564 396.565C481.722 396.115 481.853 395.928 481.864 395.916C481.909 395.892 481.584 396.473 480.988 397.199C480.393 397.925 479.573 398.817 478.608 399.771C477.642 400.724 476.54 401.705 475.346 402.688C472.972 404.689 470.255 406.699 467.423 408.69C461.713 412.651 455.462 416.479 449.071 420.174C445.881 422.027 442.621 423.837 439.338 425.624C437.708 426.529 436.065 427.399 434.423 428.27L429.665 430.798L442.391 465.77L443.997 465.22L445.49 464.696L448.418 463.639C450.35 462.908 452.27 462.166 454.201 461.413C458.029 459.872 461.82 458.253 465.619 456.53C473.194 453.063 480.702 449.244 488.254 444.624C492.025 442.319 495.801 439.798 499.645 436.875C501.566 435.401 503.496 433.825 505.444 432.066C507.403 430.318 509.379 428.363 511.402 426.053C513.413 423.732 515.493 421.055 517.491 417.5C518.478 415.723 519.446 413.684 520.29 411.306C521.124 408.962 521.831 406.189 522.141 403.129C522.301 401.594 522.357 399.981 522.297 398.349C522.226 396.706 522.051 395.032 521.729 393.397C521.407 391.761 520.971 390.152 520.435 388.648C520.173 387.89 519.866 387.157 519.571 386.457L519.205 385.645C518.716 384.563 518.239 383.492 517.739 382.421C517.239 381.35 516.728 380.292 516.195 379.233C515.15 377.116 514.038 375.047 512.892 372.99C511.724 370.957 510.534 368.924 509.287 366.95C508.052 364.964 506.75 363.026 505.426 361.112C504.09 359.209 502.721 357.318 501.308 355.498C495.677 348.146 489.391 341.442 482.667 335.391C479.311 332.359 475.834 329.503 472.248 326.832C468.662 324.162 465.011 321.607 461.23 319.262C459.344 318.084 457.438 316.952 455.497 315.855C453.557 314.758 451.607 313.696 449.602 312.715C447.596 311.712 445.58 310.743 443.485 309.833C442.432 309.373 441.38 308.936 440.281 308.499C439.727 308.287 439.183 308.063 438.594 307.841L436.515 307.079L423.45 344.523L423.484 344.511Z" fill="#5C4DA0"/>
<path d="M508.576 416.197C508.788 415.643 508.575 414.998 508.052 414.705C500.011 410.097 489.782 407.599 489.356 407.486C488.7 407.334 488.049 407.718 487.897 408.374C487.745 409.03 488.13 409.681 488.785 409.833C488.889 409.864 499.107 412.374 506.857 416.796C507.438 417.122 508.175 416.929 508.511 416.336C508.556 416.289 508.566 416.232 508.587 416.185L508.576 416.197Z" fill="#4A429A"/>
<path d="M502.315 406.477C502.401 406.268 502.417 406.04 502.376 405.801C502.242 405.142 501.612 404.704 500.953 404.837C500.601 404.905 492.093 406.537 489.384 407.668C488.763 407.926 488.476 408.631 488.734 409.252C488.992 409.873 489.697 410.16 490.318 409.902C492.801 408.87 501.321 407.226 501.412 407.223C501.844 407.142 502.166 406.847 502.315 406.477Z" fill="#4A429A"/>
<path d="M451.065 461.608C451.172 461.353 451.152 461.068 450.996 460.81C445.499 451.387 438.459 432.276 438.397 432.083C438.223 431.609 437.701 431.361 437.204 431.536C436.729 431.71 436.482 432.231 436.655 432.706C436.718 432.898 443.819 452.156 449.401 461.725C449.654 462.163 450.218 462.318 450.667 462.053C450.858 461.945 450.991 461.781 451.054 461.597L451.065 461.608Z" fill="#4A429A"/>
<path d="M438.698 687.074C438.956 688.205 439.263 689.319 439.618 690.401C441.992 697.684 446.352 703.498 452.279 705.904C474.726 715.012 495.833 711.863 538.79 710.862C581.73 709.86 613.624 698.492 609.652 663.125C609.329 660.331 608.796 657.731 608.069 655.293C607.116 652.095 605.824 649.204 604.29 646.588C602.498 643.504 600.366 640.791 598.041 638.433C585.993 626.192 567.842 622.187 551.58 627.758C535.527 633.265 507.154 635.93 477.617 636.511C445.884 637.157 434.014 666.807 438.698 687.042V687.074Z" fill="#FBB416"/>
<path d="M438.698 687.074C438.956 688.205 439.263 689.319 439.618 690.401C447.224 697.038 461.565 701.237 482.349 702.884C488.873 703.417 496.059 703.659 503.778 703.659C521.655 703.659 542.488 702.27 565.242 699.541C584.492 697.232 597.508 690.449 603.951 679.387C608.747 671.151 608.99 662.156 608.069 655.309C607.116 652.111 605.824 649.221 604.29 646.604C605.954 651.724 609.62 666.258 602.465 678.547C596.313 689.125 583.716 695.617 565.032 697.862C497.529 705.969 451.584 702.028 438.698 687.074Z" fill="#F8A81B"/>
<path d="M567.034 643.326C580.228 644.392 589.982 656.423 587.818 669.488C587.77 669.746 587.738 669.988 587.673 670.247C584.831 684.474 565.694 684.054 512.564 684.555C470.947 684.942 449.55 670.053 460.628 651.659C469.429 637.028 538.935 641.065 567.034 643.326Z" fill="#F8A81B"/>
<path d="M466.668 654.098C486.031 678.208 565 679.565 575.367 661.51C580.422 652.725 579.017 641.453 576.272 632.216C575.981 631.247 575.674 630.294 575.367 629.373C572.525 621.057 568.956 614.985 568.956 614.985C568.956 614.985 569.279 623.576 540.146 620.491C536.819 620.136 533.024 619.991 528.971 620.039C528.212 620.039 527.453 620.055 526.678 620.088C495.268 621.024 449.953 633.281 466.684 654.114L466.668 654.098Z" fill="white"/>
<path d="M530.118 639.725C534.672 644.812 542.601 646.734 553.017 645.264C553.259 645.232 553.485 645.2 553.711 645.167C566.841 643.149 573.236 636.899 576.255 632.216C575.965 631.247 575.658 630.294 575.351 629.373C573.123 633.685 567.244 641.033 552.694 643.068C543.053 644.424 535.802 642.745 531.765 638.239C528.131 634.17 527.162 627.888 528.939 620.023C528.18 620.023 527.421 620.039 526.645 620.072C524.853 628.437 526.048 635.203 530.101 639.725H530.118Z" fill="#FBAB47"/>
<path d="M477.617 636.544C477.617 636.544 459.078 635.171 456.881 625.821C454.685 616.47 497.222 624.674 501.905 605.392C506.604 586.126 487.791 570.752 481.686 576.388C474.452 583.074 490.294 585.916 491.15 595.832C491.86 604.068 486.757 611.658 470.915 612.788C455.073 613.919 447.999 616.373 448.064 623.737C448.145 631.747 460.967 640.016 468.767 640.532C476.567 641.049 477.617 636.544 477.617 636.544Z" fill="white"/>
<path d="M558.96 607.879C558.96 607.879 564.467 600.725 573.413 595.961C574.721 595.267 576.272 596.316 576.11 597.786L574.414 614.193C574.414 614.193 561.56 615.291 558.944 607.895L558.96 607.879Z" fill="white"/>
<path d="M571.282 612.207C572.008 608.493 572.186 604.585 573.042 600.192C573.042 600.192 563.369 605.957 562.803 609.122C562.803 609.122 568.132 613.16 571.282 612.207Z" fill="#5A4C54"/>
<path d="M542.181 608.541C542.181 608.541 534.623 603.987 524.724 602.743C523.109 602.534 521.914 604.245 522.64 605.715L529.407 619.216C529.407 619.216 542.439 616.389 542.165 608.541H542.181Z" fill="white"/>
<path d="M532.282 617.052C530.247 613.854 528.664 610.269 526.274 606.506C526.274 606.506 537.368 608.363 539.064 611.109C539.064 611.109 535.56 616.809 532.282 617.068V617.052Z" fill="#5A4C54"/>
<path d="M566.146 608.17C566.146 608.17 577.596 609.914 576.74 623.334C575.884 636.754 562.819 638.175 562.819 638.175C562.819 638.175 560.494 642.486 552.419 644.231C547.252 645.345 539.565 644.99 537.611 641.195C537.611 641.195 526.403 637.093 526.532 627.096C526.678 616.018 540.017 602.421 566.146 608.17Z" fill="white"/>
<path d="M577.773 639.886C577.773 639.886 573.106 658.926 569.182 662.867C565.274 666.791 561.027 668.955 555.568 669.617C546.767 670.683 548.382 676.561 551.014 678.58C554.051 680.921 559.444 679.581 567.551 679.581C574.544 679.581 581.133 678.192 583.506 673.59C585.864 668.987 585.719 655.39 583.2 647.735C581.649 643.019 579.469 640.549 577.79 639.903L577.773 639.886Z" fill="white"/>
<path d="M518.619 641.146C518.619 641.146 523.286 660.186 527.211 664.126C531.119 668.05 535.398 670.004 540.824 670.877C547.462 671.926 546.848 678.192 545.378 679.839C542.811 682.698 536.949 680.841 528.842 680.841C521.849 680.841 513.581 678.047 511.207 673.444C508.849 668.842 510.674 656.649 513.193 648.995C514.744 644.279 516.924 641.808 518.603 641.162L518.619 641.146Z" fill="white"/>
<path d="M479.522 637.351C479.522 637.351 467.201 634.396 463.228 643.681C456.978 658.28 461.968 666.629 478.618 668.955C495.268 671.28 514.178 674.429 499.886 662.576C485.578 650.739 479.522 637.351 479.522 637.351Z" fill="white"/>
<path d="M545.831 629.842C545.831 629.842 550.805 629.309 552.129 629.922C554.357 630.94 550.772 635.09 548.495 635.445C546.218 635.801 544.006 633.136 544.038 631.392C544.07 629.664 545.831 629.842 545.831 629.842Z" fill="#5A4C54"/>
<path d="M543.279 626.014C543.521 625.869 543.78 626.176 543.602 626.386C542.617 627.565 540.792 629.115 538.321 628.598C536.287 628.162 535.511 626.741 535.237 625.498C535.172 625.223 535.56 625.062 535.689 625.32C536.222 626.24 537.239 627.177 539.226 627.306C540.728 627.403 542.262 626.66 543.279 626.031V626.014Z" fill="#5A4C54"/>
<path d="M562.545 624.997C562.755 624.803 563.062 625.062 562.932 625.304C562.173 626.644 560.672 628.501 558.152 628.453C556.069 628.404 555.052 627.145 554.551 625.966C554.438 625.708 554.777 625.481 554.971 625.708C555.649 626.515 556.828 627.258 558.814 627.016C560.3 626.838 561.689 625.821 562.561 625.013L562.545 624.997Z" fill="#5A4C54"/>
</svg>
